<svg width="1116" height="1056" viewBox="0 0 1116 1056" fill="none" xmlns="http://www.w3.org/2000/svg">
<rect x="4" y="4" width="1108" height="1048" rx="54" fill="#FFF5F5"/>
<rect x="4" y="4" width="1108" height="1048" rx="54" stroke="#F2F2F2" stroke-width="8"/>
<path d="M109.2 169L126.18 126.82H132.84L149.76 169H141.06L127.98 134.38H130.98L117.72 169H109.2ZM118.2 161.14V154.3H140.88V161.14H118.2ZM125.58 123.1L122.58 119.38L131.22 110.02L136.26 116.14L125.58 123.1ZM160.742 151.36V145H170.522C172.522 145 174.062 144.5 175.142 143.5C176.262 142.46 176.822 141.04 176.822 139.24C176.822 137.6 176.262 136.24 175.142 135.16C174.062 134.04 172.522 133.48 170.522 133.48H160.742V126.82H171.242C173.962 126.82 176.342 127.36 178.382 128.44C180.462 129.48 182.062 130.92 183.182 132.76C184.342 134.6 184.922 136.72 184.922 139.12C184.922 141.6 184.342 143.76 183.182 145.6C182.062 147.4 180.462 148.82 178.382 149.86C176.302 150.86 173.882 151.36 171.122 151.36H160.742ZM154.742 169V126.82H162.902V169H154.742ZM177.782 169L163.862 150.76L171.362 148.42L187.682 169H177.782ZM192.3 169V126.82H200.46V169H192.3ZM198.3 169V161.8H221.64V169H198.3ZM198.3 150.94V143.98H219.54V150.94H198.3ZM198.3 134.02V126.82H221.34V134.02H198.3ZM225.274 169L242.254 126.82H248.914L265.834 169H257.134L244.054 134.38H247.054L233.794 169H225.274ZM234.274 161.14V154.3H256.954V161.14H234.274ZM282.177 169.6C278.777 169.6 275.857 169.02 273.417 167.86C271.017 166.7 268.837 164.96 266.877 162.64L272.277 157.24C273.517 158.88 274.957 160.16 276.597 161.08C278.237 161.96 280.237 162.4 282.597 162.4C284.717 162.4 286.397 161.98 287.637 161.14C288.917 160.3 289.557 159.14 289.557 157.66C289.557 156.38 289.197 155.34 288.477 154.54C287.757 153.74 286.797 153.06 285.597 152.5C284.437 151.94 283.137 151.44 281.697 151C280.297 150.52 278.877 149.98 277.437 149.38C276.037 148.78 274.737 148.04 273.537 147.16C272.377 146.24 271.437 145.08 270.717 143.68C269.997 142.24 269.637 140.44 269.637 138.28C269.637 135.72 270.257 133.54 271.497 131.74C272.737 129.94 274.437 128.56 276.597 127.6C278.757 126.64 281.197 126.16 283.917 126.16C286.797 126.16 289.397 126.7 291.717 127.78C294.037 128.86 295.937 130.26 297.417 131.98L292.017 137.38C290.777 136.02 289.497 135.02 288.177 134.38C286.897 133.74 285.437 133.42 283.797 133.42C281.917 133.42 280.437 133.78 279.357 134.5C278.277 135.22 277.737 136.26 277.737 137.62C277.737 138.78 278.097 139.72 278.817 140.44C279.537 141.16 280.477 141.78 281.637 142.3C282.837 142.82 284.137 143.32 285.537 143.8C286.977 144.28 288.397 144.82 289.797 145.42C291.237 146.02 292.537 146.8 293.697 147.76C294.897 148.72 295.857 149.96 296.577 151.48C297.297 152.96 297.657 154.8 297.657 157C297.657 160.92 296.277 164 293.517 166.24C290.757 168.48 286.977 169.6 282.177 169.6Z" fill="black" fill-opacity="0.35"/>
<path d="M968 138V148M968 148V158M968 148H978M968 148H958M998 148C998 151.94 997.224 155.841 995.716 159.481C994.209 163.12 991.999 166.427 989.213 169.213C986.427 171.999 983.12 174.209 979.481 175.716C975.841 177.224 971.94 178 968 178C964.06 178 960.159 177.224 956.519 175.716C952.88 174.209 949.573 171.999 946.787 169.213C944.001 166.427 941.791 163.12 940.284 159.481C938.776 155.841 938 151.94 938 148C938 140.044 941.161 132.413 946.787 126.787C952.413 121.161 960.044 118 968 118C975.956 118 983.587 121.161 989.213 126.787C994.839 132.413 998 140.044 998 148Z" stroke="black" stroke-opacity="0.3" stroke-width="5" stroke-linecap="round" stroke-linejoin="round"/>
<path d="M185.5 258.833H177.166C174.956 258.833 172.837 259.711 171.274 261.274C169.711 262.837 168.833 264.957 168.833 267.167V317.167C168.833 319.377 169.711 321.496 171.274 323.059C172.837 324.622 174.956 325.5 177.166 325.5H218.833C221.043 325.5 223.163 324.622 224.726 323.059C226.288 321.496 227.166 319.377 227.166 317.167V267.167C227.166 264.957 226.288 262.837 224.726 261.274C223.163 259.711 221.043 258.833 218.833 258.833H210.5M185.5 258.833C185.5 261.043 186.378 263.163 187.94 264.726C189.503 266.289 191.623 267.167 193.833 267.167H202.166C204.376 267.167 206.496 266.289 208.059 264.726C209.622 263.163 210.5 261.043 210.5 258.833M185.5 258.833C185.5 256.623 186.378 254.504 187.94 252.941C189.503 251.378 191.623 250.5 193.833 250.5H202.166C204.376 250.5 206.496 251.378 208.059 252.941C209.622 254.504 210.5 256.623 210.5 258.833M198 288H210.5M198 304.667H210.5M185.5 288H185.541M185.5 304.667H185.541" stroke="#1A202C" stroke-width="7" stroke-linecap="round" stroke-linejoin="round"/>
<path d="M297.68 316V260.96H308.64V316H297.68ZM279.76 269.44V259.76H326.56V269.44H279.76ZM341.503 316.8C337.61 316.8 334.09 315.92 330.943 314.16C327.85 312.347 325.37 309.92 323.503 306.88C321.69 303.787 320.783 300.347 320.783 296.56C320.783 292.773 321.69 289.387 323.503 286.4C325.316 283.36 327.796 280.96 330.943 279.2C334.09 277.387 337.583 276.48 341.423 276.48C345.37 276.48 348.89 277.387 351.983 279.2C355.13 280.96 357.61 283.36 359.423 286.4C361.236 289.387 362.143 292.773 362.143 296.56C362.143 300.347 361.236 303.787 359.423 306.88C357.61 309.92 355.13 312.347 351.983 314.16C348.89 315.92 345.396 316.8 341.503 316.8ZM341.423 307.04C343.396 307.04 345.13 306.613 346.623 305.76C348.17 304.853 349.343 303.627 350.143 302.08C350.996 300.48 351.423 298.667 351.423 296.64C351.423 294.613 350.996 292.827 350.143 291.28C349.29 289.733 348.116 288.533 346.623 287.68C345.13 286.773 343.396 286.32 341.423 286.32C339.503 286.32 337.796 286.773 336.303 287.68C334.81 288.533 333.636 289.733 332.783 291.28C331.93 292.827 331.503 294.613 331.503 296.64C331.503 298.667 331.93 300.48 332.783 302.08C333.636 303.627 334.81 304.853 336.303 305.76C337.796 306.613 339.503 307.04 341.423 307.04ZM385.21 316.8C381.637 316.8 378.437 315.92 375.61 314.16C372.783 312.4 370.543 310 368.89 306.96C367.29 303.92 366.49 300.507 366.49 296.72C366.49 292.88 367.29 289.44 368.89 286.4C370.543 283.36 372.757 280.96 375.53 279.2C378.357 277.44 381.583 276.56 385.21 276.56C387.983 276.56 390.463 277.12 392.65 278.24C394.89 279.36 396.677 280.933 398.01 282.96C399.397 284.933 400.143 287.173 400.25 289.68V303.44C400.143 305.947 399.423 308.213 398.09 310.24C396.757 312.267 394.97 313.867 392.73 315.04C390.49 316.213 387.983 316.8 385.21 316.8ZM386.97 307.12C388.943 307.12 390.65 306.693 392.09 305.84C393.583 304.933 394.73 303.707 395.53 302.16C396.383 300.56 396.81 298.72 396.81 296.64C396.81 294.613 396.383 292.827 395.53 291.28C394.73 289.68 393.583 288.453 392.09 287.6C390.65 286.693 388.97 286.24 387.05 286.24C385.077 286.24 383.343 286.693 381.85 287.6C380.41 288.507 379.263 289.733 378.41 291.28C377.61 292.827 377.21 294.613 377.21 296.64C377.21 298.72 377.61 300.56 378.41 302.16C379.263 303.707 380.437 304.933 381.93 305.84C383.423 306.693 385.103 307.12 386.97 307.12ZM406.65 316H396.25V305.6L397.93 296.16L396.17 286.88V258.16H406.65V316ZM432.081 316.8C428.561 316.8 425.388 315.92 422.561 314.16C419.735 312.4 417.521 310 415.921 306.96C414.321 303.92 413.521 300.507 413.521 296.72C413.521 292.88 414.321 289.44 415.921 286.4C417.521 283.36 419.735 280.96 422.561 279.2C425.388 277.44 428.561 276.56 432.081 276.56C434.855 276.56 437.335 277.12 439.521 278.24C441.708 279.36 443.441 280.933 444.721 282.96C446.055 284.933 446.775 287.173 446.881 289.68V303.6C446.775 306.16 446.055 308.427 444.721 310.4C443.441 312.373 441.708 313.947 439.521 315.12C437.335 316.24 434.855 316.8 432.081 316.8ZM434.001 307.12C436.935 307.12 439.308 306.16 441.121 304.24C442.935 302.267 443.841 299.733 443.841 296.64C443.841 294.613 443.415 292.827 442.561 291.28C441.761 289.68 440.615 288.453 439.121 287.6C437.681 286.693 435.975 286.24 434.001 286.24C432.081 286.24 430.375 286.693 428.881 287.6C427.441 288.453 426.295 289.68 425.441 291.28C424.641 292.827 424.241 294.613 424.241 296.64C424.241 298.72 424.641 300.56 425.441 302.16C426.295 303.707 427.441 304.933 428.881 305.84C430.375 306.693 432.081 307.12 434.001 307.12ZM443.281 316V305.6L444.961 296.16L443.281 286.88V277.36H453.681V316H443.281ZM476.233 316.88C474.046 316.88 471.886 316.587 469.753 316C467.673 315.413 465.753 314.613 463.993 313.6C462.233 312.533 460.713 311.253 459.433 309.76L465.673 303.44C467.006 304.933 468.553 306.053 470.313 306.8C472.073 307.547 474.019 307.92 476.153 307.92C477.859 307.92 479.139 307.68 479.993 307.2C480.899 306.72 481.353 306 481.353 305.04C481.353 303.973 480.873 303.147 479.913 302.56C479.006 301.973 477.806 301.493 476.313 301.12C474.819 300.693 473.246 300.24 471.593 299.76C469.993 299.227 468.446 298.56 466.953 297.76C465.459 296.907 464.233 295.76 463.273 294.32C462.366 292.827 461.913 290.907 461.913 288.56C461.913 286.107 462.499 283.973 463.673 282.16C464.899 280.347 466.633 278.933 468.872 277.92C471.113 276.907 473.753 276.4 476.793 276.4C479.993 276.4 482.873 276.96 485.433 278.08C488.046 279.2 490.206 280.88 491.913 283.12L485.593 289.44C484.419 288 483.086 286.96 481.593 286.32C480.153 285.68 478.579 285.36 476.873 285.36C475.326 285.36 474.126 285.6 473.273 286.08C472.473 286.56 472.073 287.227 472.073 288.08C472.073 289.04 472.526 289.787 473.433 290.32C474.393 290.853 475.619 291.333 477.113 291.76C478.606 292.133 480.153 292.587 481.753 293.12C483.406 293.6 484.953 294.293 486.393 295.2C487.886 296.107 489.086 297.307 489.993 298.8C490.953 300.293 491.433 302.213 491.433 304.56C491.433 308.347 490.073 311.36 487.353 313.6C484.633 315.787 480.926 316.88 476.233 316.88ZM514.124 316V258.16H524.604V316H514.124ZM550.05 316.8C546.53 316.8 543.357 315.92 540.53 314.16C537.703 312.4 535.49 310 533.89 306.96C532.29 303.92 531.49 300.507 531.49 296.72C531.49 292.88 532.29 289.44 533.89 286.4C535.49 283.36 537.703 280.96 540.53 279.2C543.357 277.44 546.53 276.56 550.05 276.56C552.823 276.56 555.303 277.12 557.49 278.24C559.677 279.36 561.41 280.933 562.69 282.96C564.023 284.933 564.743 287.173 564.85 289.68V303.6C564.743 306.16 564.023 308.427 562.69 310.4C561.41 312.373 559.677 313.947 557.49 315.12C555.303 316.24 552.823 316.8 550.05 316.8ZM551.97 307.12C554.903 307.12 557.277 306.16 559.09 304.24C560.903 302.267 561.81 299.733 561.81 296.64C561.81 294.613 561.383 292.827 560.53 291.28C559.73 289.68 558.583 288.453 557.09 287.6C555.65 286.693 553.943 286.24 551.97 286.24C550.05 286.24 548.343 286.693 546.85 287.6C545.41 288.453 544.263 289.68 543.41 291.28C542.61 292.827 542.21 294.613 542.21 296.64C542.21 298.72 542.61 300.56 543.41 302.16C544.263 303.707 545.41 304.933 546.85 305.84C548.343 306.693 550.05 307.12 551.97 307.12ZM561.25 316V305.6L562.93 296.16L561.25 286.88V277.36H571.65V316H561.25ZM594.201 316.88C592.015 316.88 589.855 316.587 587.721 316C585.641 315.413 583.721 314.613 581.961 313.6C580.201 312.533 578.681 311.253 577.401 309.76L583.641 303.44C584.975 304.933 586.521 306.053 588.281 306.8C590.041 307.547 591.988 307.92 594.121 307.92C595.828 307.92 597.108 307.68 597.961 307.2C598.868 306.72 599.321 306 599.321 305.04C599.321 303.973 598.841 303.147 597.881 302.56C596.975 301.973 595.775 301.493 594.281 301.12C592.788 300.693 591.215 300.24 589.561 299.76C587.961 299.227 586.415 298.56 584.921 297.76C583.428 296.907 582.201 295.76 581.241 294.32C580.335 292.827 579.881 290.907 579.881 288.56C579.881 286.107 580.468 283.973 581.641 282.16C582.868 280.347 584.601 278.933 586.841 277.92C589.081 276.907 591.721 276.4 594.761 276.4C597.961 276.4 600.841 276.96 603.401 278.08C606.015 279.2 608.175 280.88 609.881 283.12L603.561 289.44C602.388 288 601.055 286.96 599.561 286.32C598.121 285.68 596.548 285.36 594.841 285.36C593.295 285.36 592.095 285.6 591.241 286.08C590.441 286.56 590.041 287.227 590.041 288.08C590.041 289.04 590.495 289.787 591.401 290.32C592.361 290.853 593.588 291.333 595.081 291.76C596.575 292.133 598.121 292.587 599.721 293.12C601.375 293.6 602.921 294.293 604.361 295.2C605.855 296.107 607.055 297.307 607.961 298.8C608.921 300.293 609.401 302.213 609.401 304.56C609.401 308.347 608.041 311.36 605.321 313.6C602.601 315.787 598.895 316.88 594.201 316.88ZM648.253 316.8C644.733 316.8 641.56 315.92 638.733 314.16C635.906 312.4 633.693 310 632.093 306.96C630.493 303.92 629.693 300.507 629.693 296.72C629.693 292.88 630.493 289.44 632.093 286.4C633.693 283.36 635.906 280.96 638.733 279.2C641.56 277.44 644.733 276.56 648.253 276.56C651.026 276.56 653.506 277.12 655.693 278.24C657.88 279.36 659.613 280.933 660.893 282.96C662.226 284.933 662.946 287.173 663.053 289.68V303.6C662.946 306.16 662.226 308.427 660.893 310.4C659.613 312.373 657.88 313.947 655.693 315.12C653.506 316.24 651.026 316.8 648.253 316.8ZM650.173 307.12C653.106 307.12 655.48 306.16 657.293 304.24C659.106 302.267 660.013 299.733 660.013 296.64C660.013 294.613 659.586 292.827 658.733 291.28C657.933 289.68 656.786 288.453 655.293 287.6C653.853 286.693 652.146 286.24 650.173 286.24C648.253 286.24 646.546 286.693 645.053 287.6C643.613 288.453 642.466 289.68 641.613 291.28C640.813 292.827 640.413 294.613 640.413 296.64C640.413 298.72 640.813 300.56 641.613 302.16C642.466 303.707 643.613 304.933 645.053 305.84C646.546 306.693 648.253 307.12 650.173 307.12ZM659.453 316V305.6L661.133 296.16L659.453 286.88V277.36H669.853V316H659.453ZM646.013 272.4L642.013 267.44L653.533 254.96L660.253 263.12L646.013 272.4ZM679.124 316V277.36H689.604V316H679.124ZM689.604 294.64L685.524 291.92C686.004 287.173 687.391 283.44 689.684 280.72C691.978 277.947 695.284 276.56 699.604 276.56C701.471 276.56 703.151 276.88 704.644 277.52C706.138 278.107 707.498 279.093 708.724 280.48L702.164 288C701.578 287.36 700.858 286.88 700.004 286.56C699.204 286.24 698.271 286.08 697.204 286.08C694.964 286.08 693.124 286.8 691.684 288.24C690.298 289.627 689.604 291.76 689.604 294.64ZM729.792 316.8C725.739 316.8 722.139 315.947 718.992 314.24C715.845 312.48 713.339 310.08 711.472 307.04C709.659 304 708.752 300.533 708.752 296.64C708.752 292.8 709.632 289.387 711.392 286.4C713.205 283.36 715.659 280.96 718.752 279.2C721.845 277.387 725.285 276.48 729.072 276.48C732.805 276.48 736.085 277.333 738.912 279.04C741.792 280.693 744.032 282.987 745.632 285.92C747.285 288.8 748.112 292.08 748.112 295.76C748.112 296.453 748.059 297.173 747.952 297.92C747.899 298.613 747.765 299.413 747.552 300.32L715.072 300.4V292.56L742.672 292.48L738.432 295.76C738.325 293.467 737.899 291.547 737.152 290C736.459 288.453 735.419 287.28 734.032 286.48C732.699 285.627 731.045 285.2 729.072 285.2C726.992 285.2 725.179 285.68 723.632 286.64C722.085 287.547 720.885 288.853 720.032 290.56C719.232 292.213 718.832 294.187 718.832 296.48C718.832 298.827 719.259 300.88 720.112 302.64C721.019 304.347 722.299 305.68 723.952 306.64C725.605 307.547 727.525 308 729.712 308C731.685 308 733.472 307.68 735.072 307.04C736.672 306.347 738.059 305.333 739.232 304L745.392 310.16C743.525 312.347 741.232 314 738.512 315.12C735.845 316.24 732.939 316.8 729.792 316.8ZM770.753 316.8C767.233 316.8 764.06 315.92 761.233 314.16C758.406 312.4 756.193 310 754.593 306.96C752.993 303.92 752.193 300.507 752.193 296.72C752.193 292.88 752.993 289.44 754.593 286.4C756.193 283.36 758.406 280.96 761.233 279.2C764.06 277.44 767.233 276.56 770.753 276.56C773.526 276.56 776.006 277.12 778.193 278.24C780.38 279.36 782.113 280.933 783.393 282.96C784.726 284.933 785.446 287.173 785.553 289.68V303.6C785.446 306.16 784.726 308.427 783.393 310.4C782.113 312.373 780.38 313.947 778.193 315.12C776.006 316.24 773.526 316.8 770.753 316.8ZM772.673 307.12C775.606 307.12 777.98 306.16 779.793 304.24C781.606 302.267 782.513 299.733 782.513 296.64C782.513 294.613 782.086 292.827 781.233 291.28C780.433 289.68 779.286 288.453 777.793 287.6C776.353 286.693 774.646 286.24 772.673 286.24C770.753 286.24 769.046 286.693 767.553 287.6C766.113 288.453 764.966 289.68 764.113 291.28C763.313 292.827 762.913 294.613 762.913 296.64C762.913 298.72 763.313 300.56 764.113 302.16C764.966 303.707 766.113 304.933 767.553 305.84C769.046 306.693 770.753 307.12 772.673 307.12ZM781.953 316V305.6L783.633 296.16L781.953 286.88V277.36H792.353V316H781.953ZM814.904 316.88C812.718 316.88 810.558 316.587 808.424 316C806.344 315.413 804.424 314.613 802.664 313.6C800.904 312.533 799.384 311.253 798.104 309.76L804.344 303.44C805.678 304.933 807.224 306.053 808.984 306.8C810.744 307.547 812.691 307.92 814.824 307.92C816.531 307.92 817.811 307.68 818.664 307.2C819.571 306.72 820.024 306 820.024 305.04C820.024 303.973 819.544 303.147 818.584 302.56C817.678 301.973 816.478 301.493 814.984 301.12C813.491 300.693 811.918 300.24 810.264 299.76C808.664 299.227 807.118 298.56 805.624 297.76C804.131 296.907 802.904 295.76 801.944 294.32C801.038 292.827 800.584 290.907 800.584 288.56C800.584 286.107 801.171 283.973 802.344 282.16C803.571 280.347 805.304 278.933 807.544 277.92C809.784 276.907 812.424 276.4 815.464 276.4C818.664 276.4 821.544 276.96 824.104 278.08C826.718 279.2 828.878 280.88 830.584 283.12L824.264 289.44C823.091 288 821.758 286.96 820.264 286.32C818.824 285.68 817.251 285.36 815.544 285.36C813.998 285.36 812.798 285.6 811.944 286.08C811.144 286.56 810.744 287.227 810.744 288.08C810.744 289.04 811.198 289.787 812.104 290.32C813.064 290.853 814.291 291.333 815.784 291.76C817.278 292.133 818.824 292.587 820.424 293.12C822.078 293.6 823.624 294.293 825.064 295.2C826.558 296.107 827.758 297.307 828.664 298.8C829.624 300.293 830.104 302.213 830.104 304.56C830.104 308.347 828.744 311.36 826.024 313.6C823.304 315.787 819.598 316.88 814.904 316.88Z" fill="#1A202C"/>
<path d="M198 440.5V444.667M198 511.333V515.5M235.5 478H231.333M164.667 478H160.5M224.517 504.517L221.571 501.571M174.429 454.429L171.483 451.483M224.517 451.483L221.571 454.429M174.429 501.571L171.483 504.517M214.667 478C214.667 482.42 212.911 486.66 209.785 489.785C206.66 492.911 202.42 494.667 198 494.667C193.58 494.667 189.34 492.911 186.215 489.785C183.089 486.66 181.333 482.42 181.333 478C181.333 473.58 183.089 469.34 186.215 466.215C189.34 463.089 193.58 461.333 198 461.333C202.42 461.333 206.66 463.089 209.785 466.215C212.911 469.34 214.667 473.58 214.667 478Z" stroke="black" stroke-width="7" stroke-linecap="round" stroke-linejoin="round"/>
<path d="M283.76 506V449.76H291.44L314.24 486.24H309.84L332.56 449.76H340.24V506H329.44V468.4L331.52 469.04L315.68 494.48H308.32L292.48 469.04L294.64 468.4V506H283.76ZM366.769 506.8C363.249 506.8 360.075 505.92 357.249 504.16C354.422 502.4 352.209 500 350.609 496.96C349.009 493.92 348.209 490.507 348.209 486.72C348.209 482.88 349.009 479.44 350.609 476.4C352.209 473.36 354.422 470.96 357.249 469.2C360.075 467.44 363.249 466.56 366.769 466.56C369.542 466.56 372.022 467.12 374.209 468.24C376.395 469.36 378.129 470.933 379.409 472.96C380.742 474.933 381.462 477.173 381.569 479.68V493.6C381.462 496.16 380.742 498.427 379.409 500.4C378.129 502.373 376.395 503.947 374.209 505.12C372.022 506.24 369.542 506.8 366.769 506.8ZM368.689 497.12C371.622 497.12 373.995 496.16 375.809 494.24C377.622 492.267 378.529 489.733 378.529 486.64C378.529 484.613 378.102 482.827 377.249 481.28C376.449 479.68 375.302 478.453 373.809 477.6C372.369 476.693 370.662 476.24 368.689 476.24C366.769 476.24 365.062 476.693 363.569 477.6C362.129 478.453 360.982 479.68 360.129 481.28C359.329 482.827 358.929 484.613 358.929 486.64C358.929 488.72 359.329 490.56 360.129 492.16C360.982 493.707 362.129 494.933 363.569 495.84C365.062 496.693 366.769 497.12 368.689 497.12ZM377.969 506V495.6L379.649 486.16L377.969 476.88V467.36H388.369V506H377.969ZM423.64 506V483.84C423.64 481.547 422.92 479.68 421.48 478.24C420.04 476.8 418.173 476.08 415.88 476.08C414.387 476.08 413.053 476.4 411.88 477.04C410.707 477.68 409.773 478.587 409.08 479.76C408.44 480.933 408.12 482.293 408.12 483.84L404.04 481.76C404.04 478.72 404.68 476.08 405.96 473.84C407.293 471.547 409.107 469.76 411.4 468.48C413.747 467.2 416.387 466.56 419.32 466.56C422.147 466.56 424.68 467.28 426.92 468.72C429.16 470.107 430.92 471.947 432.2 474.24C433.48 476.48 434.12 478.907 434.12 481.52V506H423.64ZM397.64 506V467.36H408.12V506H397.64ZM421.32 462.4C419.56 462.4 418.067 462.08 416.84 461.44C415.613 460.8 414.467 460.187 413.4 459.6C412.333 459.013 411.187 458.72 409.96 458.72C408.68 458.72 407.613 458.96 406.76 459.44C405.96 459.92 405.187 460.667 404.44 461.68L399.16 456.4C400.707 454.373 402.28 452.827 403.88 451.76C405.533 450.693 407.453 450.16 409.64 450.16C411.4 450.16 412.893 450.48 414.12 451.12C415.347 451.707 416.493 452.32 417.56 452.96C418.627 453.547 419.773 453.84 421 453.84C422.333 453.84 423.4 453.6 424.2 453.12C425.053 452.587 425.827 451.84 426.52 450.88L431.8 456.08C430.253 458.107 428.653 459.68 427 460.8C425.4 461.867 423.507 462.4 421.32 462.4ZM458.722 506.8C455.202 506.8 452.029 505.92 449.202 504.16C446.375 502.4 444.162 500 442.562 496.96C440.962 493.92 440.162 490.507 440.162 486.72C440.162 482.88 440.962 479.44 442.562 476.4C444.162 473.36 446.375 470.96 449.202 469.2C452.029 467.44 455.202 466.56 458.722 466.56C461.495 466.56 463.975 467.12 466.162 468.24C468.349 469.36 470.082 470.933 471.362 472.96C472.695 474.933 473.415 477.173 473.522 479.68V493.6C473.415 496.16 472.695 498.427 471.362 500.4C470.082 502.373 468.349 503.947 466.162 505.12C463.975 506.24 461.495 506.8 458.722 506.8ZM460.642 497.12C463.575 497.12 465.949 496.16 467.762 494.24C469.575 492.267 470.482 489.733 470.482 486.64C470.482 484.613 470.055 482.827 469.202 481.28C468.402 479.68 467.255 478.453 465.762 477.6C464.322 476.693 462.615 476.24 460.642 476.24C458.722 476.24 457.015 476.693 455.522 477.6C454.082 478.453 452.935 479.68 452.082 481.28C451.282 482.827 450.882 484.613 450.882 486.64C450.882 488.72 451.282 490.56 452.082 492.16C452.935 493.707 454.082 494.933 455.522 495.84C457.015 496.693 458.722 497.12 460.642 497.12ZM469.922 506V495.6L471.602 486.16L469.922 476.88V467.36H480.322V506H469.922ZM515.593 506V483.84C515.593 481.547 514.873 479.68 513.433 478.24C511.993 476.8 510.126 476.08 507.833 476.08C506.34 476.08 505.006 476.4 503.833 477.04C502.66 477.68 501.726 478.587 501.033 479.76C500.393 480.933 500.073 482.293 500.073 483.84L495.993 481.76C495.993 478.72 496.633 476.08 497.913 473.84C499.246 471.547 501.06 469.76 503.353 468.48C505.7 467.2 508.34 466.56 511.273 466.56C514.1 466.56 516.633 467.28 518.873 468.72C521.113 470.107 522.873 471.947 524.153 474.24C525.433 476.48 526.073 478.907 526.073 481.52V506H515.593ZM489.593 506V467.36H500.073V506H489.593ZM550.675 506.8C547.155 506.8 543.982 505.92 541.155 504.16C538.328 502.4 536.115 500 534.515 496.96C532.915 493.92 532.115 490.507 532.115 486.72C532.115 482.88 532.915 479.44 534.515 476.4C536.115 473.36 538.328 470.96 541.155 469.2C543.982 467.44 547.155 466.56 550.675 466.56C553.448 466.56 555.928 467.12 558.115 468.24C560.302 469.36 562.035 470.933 563.315 472.96C564.648 474.933 565.368 477.173 565.475 479.68V493.6C565.368 496.16 564.648 498.427 563.315 500.4C562.035 502.373 560.302 503.947 558.115 505.12C555.928 506.24 553.448 506.8 550.675 506.8ZM552.595 497.12C555.528 497.12 557.902 496.16 559.715 494.24C561.528 492.267 562.435 489.733 562.435 486.64C562.435 484.613 562.008 482.827 561.155 481.28C560.355 479.68 559.208 478.453 557.715 477.6C556.275 476.693 554.568 476.24 552.595 476.24C550.675 476.24 548.968 476.693 547.475 477.6C546.035 478.453 544.888 479.68 544.035 481.28C543.235 482.827 542.835 484.613 542.835 486.64C542.835 488.72 543.235 490.56 544.035 492.16C544.888 493.707 546.035 494.933 547.475 495.84C548.968 496.693 550.675 497.12 552.595 497.12ZM561.875 506V495.6L563.555 486.16L561.875 476.88V467.36H572.275V506H561.875ZM594.826 506.88C592.64 506.88 590.48 506.587 588.346 506C586.266 505.413 584.346 504.613 582.586 503.6C580.826 502.533 579.306 501.253 578.026 499.76L584.266 493.44C585.6 494.933 587.146 496.053 588.906 496.8C590.666 497.547 592.613 497.92 594.746 497.92C596.453 497.92 597.733 497.68 598.586 497.2C599.493 496.72 599.946 496 599.946 495.04C599.946 493.973 599.466 493.147 598.506 492.56C597.6 491.973 596.4 491.493 594.906 491.12C593.413 490.693 591.84 490.24 590.186 489.76C588.586 489.227 587.04 488.56 585.546 487.76C584.053 486.907 582.826 485.76 581.866 484.32C580.96 482.827 580.506 480.907 580.506 478.56C580.506 476.107 581.093 473.973 582.266 472.16C583.493 470.347 585.226 468.933 587.466 467.92C589.706 466.907 592.346 466.4 595.386 466.4C598.586 466.4 601.466 466.96 604.026 468.08C606.64 469.2 608.8 470.88 610.506 473.12L604.186 479.44C603.013 478 601.68 476.96 600.186 476.32C598.746 475.68 597.173 475.36 595.466 475.36C593.92 475.36 592.72 475.6 591.866 476.08C591.066 476.56 590.666 477.227 590.666 478.08C590.666 479.04 591.12 479.787 592.026 480.32C592.986 480.853 594.213 481.333 595.706 481.76C597.2 482.133 598.746 482.587 600.346 483.12C602 483.6 603.546 484.293 604.986 485.2C606.48 486.107 607.68 487.307 608.586 488.8C609.546 490.293 610.026 492.213 610.026 494.56C610.026 498.347 608.666 501.36 605.946 503.6C603.226 505.787 599.52 506.88 594.826 506.88Z" fill="#1A202C"/>
<path d="M165.382 692.285C162.256 689.159 160.5 684.92 160.5 680.5C160.5 676.716 161.787 673.045 164.149 670.09C166.512 667.134 169.809 665.071 173.5 664.237C172.866 661.54 172.777 658.742 173.237 656.009C173.698 653.277 174.698 650.663 176.181 648.322C177.664 645.98 179.598 643.958 181.872 642.373C184.145 640.789 186.712 639.673 189.422 639.093C192.132 638.512 194.93 638.477 197.653 638.991C200.377 639.505 202.97 640.557 205.282 642.085C207.594 643.613 209.578 645.587 211.118 647.891C212.658 650.195 213.722 652.783 214.25 655.504C217.003 655.449 219.739 655.94 222.301 656.949C224.863 657.958 227.199 659.465 229.175 661.383C231.151 663.3 232.728 665.59 233.813 668.121C234.898 670.651 235.471 673.372 235.499 676.125C235.526 678.878 235.008 681.61 233.973 684.161C232.939 686.713 231.409 689.034 229.472 690.991C227.534 692.947 225.228 694.501 222.687 695.561C220.146 696.621 217.42 697.167 214.667 697.167H177.167C172.746 697.167 168.507 695.411 165.382 692.285Z" stroke="#1A202C" stroke-width="7" stroke-linecap="round" stroke-linejoin="round"/>
<path d="M297.68 696V640.96H308.64V696H297.68ZM279.76 649.44V639.76H326.56V649.44H279.76ZM339.503 696.8C335.983 696.8 332.81 695.92 329.983 694.16C327.156 692.4 324.943 690 323.343 686.96C321.743 683.92 320.943 680.507 320.943 676.72C320.943 672.88 321.743 669.44 323.343 666.4C324.943 663.36 327.156 660.96 329.983 659.2C332.81 657.44 335.983 656.56 339.503 656.56C342.276 656.56 344.756 657.12 346.943 658.24C349.13 659.36 350.863 660.933 352.143 662.96C353.476 664.933 354.196 667.173 354.303 669.68V683.6C354.196 686.16 353.476 688.427 352.143 690.4C350.863 692.373 349.13 693.947 346.943 695.12C344.756 696.24 342.276 696.8 339.503 696.8ZM341.423 687.12C344.356 687.12 346.73 686.16 348.543 684.24C350.356 682.267 351.263 679.733 351.263 676.64C351.263 674.613 350.836 672.827 349.983 671.28C349.183 669.68 348.036 668.453 346.543 667.6C345.103 666.693 343.396 666.24 341.423 666.24C339.503 666.24 337.796 666.693 336.303 667.6C334.863 668.453 333.716 669.68 332.863 671.28C332.063 672.827 331.663 674.613 331.663 676.64C331.663 678.72 332.063 680.56 332.863 682.16C333.716 683.707 334.863 684.933 336.303 685.84C337.796 686.693 339.503 687.12 341.423 687.12ZM350.703 696V685.6L352.383 676.16L350.703 666.88V657.36H361.103V696H350.703ZM370.374 696V657.36H380.854V696H370.374ZM380.854 674.64L376.774 671.92C377.254 667.173 378.641 663.44 380.934 660.72C383.228 657.947 386.534 656.56 390.854 656.56C392.721 656.56 394.401 656.88 395.894 657.52C397.388 658.107 398.748 659.093 399.974 660.48L393.414 668C392.828 667.36 392.108 666.88 391.254 666.56C390.454 666.24 389.521 666.08 388.454 666.08C386.214 666.08 384.374 666.8 382.934 668.24C381.548 669.627 380.854 671.76 380.854 674.64ZM418.882 696.8C415.309 696.8 412.109 695.92 409.282 694.16C406.455 692.4 404.215 690 402.562 686.96C400.962 683.92 400.162 680.507 400.162 676.72C400.162 672.88 400.962 669.44 402.562 666.4C404.215 663.36 406.429 660.96 409.202 659.2C412.029 657.44 415.255 656.56 418.882 656.56C421.655 656.56 424.135 657.12 426.322 658.24C428.562 659.36 430.349 660.933 431.682 662.96C433.069 664.933 433.815 667.173 433.922 669.68V683.44C433.815 685.947 433.095 688.213 431.762 690.24C430.429 692.267 428.642 693.867 426.402 695.04C424.162 696.213 421.655 696.8 418.882 696.8ZM420.642 687.12C422.615 687.12 424.322 686.693 425.762 685.84C427.255 684.933 428.402 683.707 429.202 682.16C430.055 680.56 430.482 678.72 430.482 676.64C430.482 674.613 430.055 672.827 429.202 671.28C428.402 669.68 427.255 668.453 425.762 667.6C424.322 666.693 422.642 666.24 420.722 666.24C418.749 666.24 417.015 666.693 415.522 667.6C414.082 668.507 412.935 669.733 412.082 671.28C411.282 672.827 410.882 674.613 410.882 676.64C410.882 678.72 411.282 680.56 412.082 682.16C412.935 683.707 414.109 684.933 415.602 685.84C417.095 686.693 418.775 687.12 420.642 687.12ZM440.322 696H429.922V685.6L431.602 676.16L429.842 666.88V638.16H440.322V696ZM468.073 696.8C464.02 696.8 460.42 695.947 457.273 694.24C454.126 692.48 451.62 690.08 449.753 687.04C447.94 684 447.033 680.533 447.033 676.64C447.033 672.8 447.913 669.387 449.673 666.4C451.486 663.36 453.94 660.96 457.033 659.2C460.126 657.387 463.566 656.48 467.353 656.48C471.086 656.48 474.366 657.333 477.193 659.04C480.073 660.693 482.313 662.987 483.913 665.92C485.566 668.8 486.393 672.08 486.393 675.76C486.393 676.453 486.34 677.173 486.233 677.92C486.18 678.613 486.046 679.413 485.833 680.32L453.353 680.4V672.56L480.953 672.48L476.713 675.76C476.606 673.467 476.18 671.547 475.433 670C474.74 668.453 473.7 667.28 472.313 666.48C470.98 665.627 469.326 665.2 467.353 665.2C465.273 665.2 463.46 665.68 461.913 666.64C460.366 667.547 459.166 668.853 458.313 670.56C457.513 672.213 457.113 674.187 457.113 676.48C457.113 678.827 457.54 680.88 458.393 682.64C459.3 684.347 460.58 685.68 462.233 686.64C463.886 687.547 465.806 688 467.993 688C469.966 688 471.753 687.68 473.353 687.04C474.953 686.347 476.34 685.333 477.513 684L483.673 690.16C481.806 692.347 479.513 694 476.793 695.12C474.126 696.24 471.22 696.8 468.073 696.8ZM506.154 696.88C503.968 696.88 501.808 696.587 499.674 696C497.594 695.413 495.674 694.613 493.914 693.6C492.154 692.533 490.634 691.253 489.354 689.76L495.594 683.44C496.928 684.933 498.474 686.053 500.234 686.8C501.994 687.547 503.941 687.92 506.074 687.92C507.781 687.92 509.061 687.68 509.914 687.2C510.821 686.72 511.274 686 511.274 685.04C511.274 683.973 510.794 683.147 509.834 682.56C508.928 681.973 507.728 681.493 506.234 681.12C504.741 680.693 503.168 680.24 501.514 679.76C499.914 679.227 498.368 678.56 496.874 677.76C495.381 676.907 494.154 675.76 493.194 674.32C492.288 672.827 491.834 670.907 491.834 668.56C491.834 666.107 492.421 663.973 493.594 662.16C494.821 660.347 496.554 658.933 498.794 657.92C501.034 656.907 503.674 656.4 506.714 656.4C509.914 656.4 512.794 656.96 515.354 658.08C517.968 659.2 520.128 660.88 521.834 663.12L515.514 669.44C514.341 668 513.008 666.96 511.514 666.32C510.074 665.68 508.501 665.36 506.794 665.36C505.248 665.36 504.048 665.6 503.194 666.08C502.394 666.56 501.994 667.227 501.994 668.08C501.994 669.04 502.448 669.787 503.354 670.32C504.314 670.853 505.541 671.333 507.034 671.76C508.528 672.133 510.074 672.587 511.674 673.12C513.328 673.6 514.874 674.293 516.314 675.2C517.808 676.107 519.008 677.307 519.914 678.8C520.874 680.293 521.354 682.213 521.354 684.56C521.354 688.347 519.994 691.36 517.274 693.6C514.554 695.787 510.848 696.88 506.154 696.88Z" fill="#1A202C"/>
<path d="M211.311 873.924C218.513 875.395 225.989 874.718 232.809 871.975C230.017 878.922 225.21 884.875 219.007 889.068C212.803 893.26 205.487 895.5 198 895.5C189.294 895.491 180.861 892.453 174.149 886.908C167.436 881.362 162.862 873.655 161.21 865.106C159.558 856.557 160.931 847.7 165.093 840.053C169.256 832.406 175.949 826.445 184.025 823.192C181.283 830.012 180.605 837.487 182.076 844.689C183.548 851.891 187.103 858.502 192.301 863.7C197.499 868.897 204.109 872.453 211.311 873.924Z" stroke="#1A202C" stroke-width="7" stroke-linecap="round" stroke-linejoin="round"/>
<path d="M283.76 886V829.76H291.36L294.64 840.64V886H283.76ZM322.64 886L289.28 842.8L291.36 829.76L324.72 872.96L322.64 886ZM322.64 886L319.52 875.44V829.76H330.48V886H322.64ZM358.925 886.8C355.032 886.8 351.512 885.92 348.365 884.16C345.272 882.347 342.792 879.92 340.925 876.88C339.112 873.787 338.205 870.347 338.205 866.56C338.205 862.773 339.112 859.387 340.925 856.4C342.738 853.36 345.218 850.96 348.365 849.2C351.512 847.387 355.005 846.48 358.845 846.48C362.792 846.48 366.312 847.387 369.405 849.2C372.552 850.96 375.032 853.36 376.845 856.4C378.658 859.387 379.565 862.773 379.565 866.56C379.565 870.347 378.658 873.787 376.845 876.88C375.032 879.92 372.552 882.347 369.405 884.16C366.312 885.92 362.818 886.8 358.925 886.8ZM358.845 877.04C360.818 877.04 362.552 876.613 364.045 875.76C365.592 874.853 366.765 873.627 367.565 872.08C368.418 870.48 368.845 868.667 368.845 866.64C368.845 864.613 368.418 862.827 367.565 861.28C366.712 859.733 365.538 858.533 364.045 857.68C362.552 856.773 360.818 856.32 358.845 856.32C356.925 856.32 355.218 856.773 353.725 857.68C352.232 858.533 351.058 859.733 350.205 861.28C349.352 862.827 348.925 864.613 348.925 866.64C348.925 868.667 349.352 870.48 350.205 872.08C351.058 873.627 352.232 874.853 353.725 875.76C355.218 876.613 356.925 877.04 358.845 877.04ZM404.552 886.8C400.605 886.8 397.059 885.92 393.912 884.16C390.765 882.4 388.285 880 386.472 876.96C384.659 873.92 383.752 870.507 383.752 866.72C383.752 862.88 384.659 859.44 386.472 856.4C388.285 853.36 390.765 850.96 393.912 849.2C397.112 847.387 400.659 846.48 404.552 846.48C407.592 846.48 410.392 847.04 412.952 848.16C415.512 849.28 417.725 850.88 419.592 852.96L412.872 859.76C411.859 858.64 410.632 857.787 409.192 857.2C407.805 856.613 406.259 856.32 404.552 856.32C402.632 856.32 400.899 856.773 399.352 857.68C397.859 858.533 396.659 859.733 395.752 861.28C394.899 862.773 394.472 864.56 394.472 866.64C394.472 868.667 394.899 870.48 395.752 872.08C396.659 873.627 397.859 874.853 399.352 875.76C400.899 876.613 402.632 877.04 404.552 877.04C406.312 877.04 407.885 876.747 409.272 876.16C410.712 875.52 411.939 874.613 412.952 873.44L419.752 880.24C417.779 882.373 415.512 884 412.952 885.12C410.392 886.24 407.592 886.8 404.552 886.8ZM451.687 886V863.84C451.687 861.547 450.967 859.68 449.527 858.24C448.087 856.8 446.22 856.08 443.927 856.08C442.434 856.08 441.1 856.4 439.927 857.04C438.754 857.68 437.82 858.587 437.127 859.76C436.487 860.933 436.167 862.293 436.167 863.84L432.087 861.76C432.087 858.72 432.727 856.08 434.007 853.84C435.287 851.547 437.047 849.76 439.287 848.48C441.58 847.2 444.194 846.56 447.127 846.56C450.06 846.56 452.647 847.2 454.887 848.48C457.18 849.76 458.967 851.52 460.247 853.76C461.527 856 462.167 858.587 462.167 861.52V886H451.687ZM425.687 886V828.16H436.167V886H425.687ZM489.089 886.8C485.035 886.8 481.435 885.947 478.289 884.24C475.142 882.48 472.635 880.08 470.769 877.04C468.955 874 468.049 870.533 468.049 866.64C468.049 862.8 468.929 859.387 470.689 856.4C472.502 853.36 474.955 850.96 478.049 849.2C481.142 847.387 484.582 846.48 488.369 846.48C492.102 846.48 495.382 847.333 498.209 849.04C501.089 850.693 503.329 852.987 504.929 855.92C506.582 858.8 507.409 862.08 507.409 865.76C507.409 866.453 507.355 867.173 507.249 867.92C507.195 868.613 507.062 869.413 506.849 870.32L474.369 870.4V862.56L501.969 862.48L497.729 865.76C497.622 863.467 497.195 861.547 496.449 860C495.755 858.453 494.715 857.28 493.329 856.48C491.995 855.627 490.342 855.2 488.369 855.2C486.289 855.2 484.475 855.68 482.929 856.64C481.382 857.547 480.182 858.853 479.329 860.56C478.529 862.213 478.129 864.187 478.129 866.48C478.129 868.827 478.555 870.88 479.409 872.64C480.315 874.347 481.595 875.68 483.249 876.64C484.902 877.547 486.822 878 489.009 878C490.982 878 492.769 877.68 494.369 877.04C495.969 876.347 497.355 875.333 498.529 874L504.689 880.16C502.822 882.347 500.529 884 497.809 885.12C495.142 886.24 492.235 886.8 489.089 886.8ZM527.17 886.88C524.983 886.88 522.823 886.587 520.69 886C518.61 885.413 516.69 884.613 514.93 883.6C513.17 882.533 511.65 881.253 510.37 879.76L516.61 873.44C517.943 874.933 519.49 876.053 521.25 876.8C523.01 877.547 524.957 877.92 527.09 877.92C528.797 877.92 530.077 877.68 530.93 877.2C531.837 876.72 532.29 876 532.29 875.04C532.29 873.973 531.81 873.147 530.85 872.56C529.943 871.973 528.743 871.493 527.25 871.12C525.757 870.693 524.183 870.24 522.53 869.76C520.93 869.227 519.383 868.56 517.89 867.76C516.397 866.907 515.17 865.76 514.21 864.32C513.303 862.827 512.85 860.907 512.85 858.56C512.85 856.107 513.437 853.973 514.61 852.16C515.837 850.347 517.57 848.933 519.81 847.92C522.05 846.907 524.69 846.4 527.73 846.4C530.93 846.4 533.81 846.96 536.37 848.08C538.983 849.2 541.143 850.88 542.85 853.12L536.53 859.44C535.357 858 534.023 856.96 532.53 856.32C531.09 855.68 529.517 855.36 527.81 855.36C526.263 855.36 525.063 855.6 524.21 856.08C523.41 856.56 523.01 857.227 523.01 858.08C523.01 859.04 523.463 859.787 524.37 860.32C525.33 860.853 526.557 861.333 528.05 861.76C529.543 862.133 531.09 862.587 532.69 863.12C534.343 863.6 535.89 864.293 537.33 865.2C538.823 866.107 540.023 867.307 540.93 868.8C541.89 870.293 542.37 872.213 542.37 874.56C542.37 878.347 541.01 881.36 538.29 883.6C535.57 885.787 531.863 886.88 527.17 886.88Z" fill="#1A202C"/>
</svg>
