<svg width="526" height="578" viewBox="0 0 526 578" fill="none" xmlns="http://www.w3.org/2000/svg">
<rect x="4" y="4" width="518" height="570" rx="54" fill="#FFF5F5"/>
<rect x="4" y="4" width="518" height="570" rx="54" stroke="#F2F2F2" stroke-width="8"/>
<path d="M91.5772 105V64.56H97.2172V105H91.5772ZM77.4172 68.52V63.36H111.317V68.52H77.4172ZM122.367 105.6C119.527 105.6 116.967 104.96 114.687 103.68C112.407 102.36 110.607 100.58 109.287 98.34C107.967 96.1 107.307 93.56 107.307 90.72C107.307 87.92 107.947 85.4 109.227 83.16C110.547 80.92 112.307 79.16 114.507 77.88C116.747 76.56 119.247 75.9 122.007 75.9C124.647 75.9 126.967 76.5 128.967 77.7C131.007 78.9 132.587 80.56 133.707 82.68C134.867 84.8 135.447 87.2 135.447 89.88C135.447 90.28 135.427 90.72 135.387 91.2C135.347 91.64 135.267 92.16 135.147 92.76H111.087V88.26H132.267L130.287 90C130.287 88.08 129.947 86.46 129.267 85.14C128.587 83.78 127.627 82.74 126.387 82.02C125.147 81.26 123.647 80.88 121.887 80.88C120.047 80.88 118.427 81.28 117.027 82.08C115.627 82.88 114.547 84 113.787 85.44C113.027 86.88 112.647 88.58 112.647 90.54C112.647 92.54 113.047 94.3 113.847 95.82C114.647 97.3 115.787 98.46 117.267 99.3C118.747 100.1 120.447 100.5 122.367 100.5C123.967 100.5 125.427 100.22 126.747 99.66C128.107 99.1 129.267 98.26 130.227 97.14L133.707 100.68C132.347 102.28 130.667 103.5 128.667 104.34C126.707 105.18 124.607 105.6 122.367 105.6ZM141.335 105V76.5H146.735V105H141.335ZM160.595 105V87.78C160.595 85.66 159.935 84 158.615 82.8C157.335 81.56 155.715 80.94 153.755 80.94C152.435 80.94 151.255 81.22 150.215 81.78C149.175 82.34 148.335 83.12 147.695 84.12C147.055 85.12 146.735 86.32 146.735 87.72L144.515 86.64C144.515 84.48 144.975 82.6 145.895 81C146.855 79.4 148.155 78.16 149.795 77.28C151.435 76.36 153.275 75.9 155.315 75.9C157.315 75.9 159.115 76.34 160.715 77.22C162.355 78.1 163.635 79.34 164.555 80.94C165.515 82.54 165.995 84.44 165.995 86.64V105H160.595ZM179.855 105V87.78C179.855 85.66 179.195 84 177.875 82.8C176.595 81.56 174.995 80.94 173.075 80.94C171.755 80.94 170.555 81.22 169.475 81.78C168.435 82.34 167.595 83.12 166.955 84.12C166.315 85.12 165.995 86.32 165.995 87.72L162.935 86.64C163.055 84.44 163.635 82.56 164.675 81C165.755 79.4 167.135 78.16 168.815 77.28C170.495 76.36 172.335 75.9 174.335 75.9C176.415 75.9 178.275 76.34 179.915 77.22C181.555 78.1 182.855 79.34 183.815 80.94C184.815 82.54 185.315 84.46 185.315 86.7V105H179.855ZM207.663 105.6C205.503 105.6 203.543 105.16 201.783 104.28C200.063 103.36 198.683 102.1 197.643 100.5C196.603 98.9 196.023 97.08 195.903 95.04V86.46C196.023 84.38 196.603 82.56 197.643 81C198.723 79.4 200.123 78.16 201.843 77.28C203.603 76.36 205.543 75.9 207.663 75.9C210.263 75.9 212.603 76.56 214.683 77.88C216.803 79.2 218.463 80.98 219.663 83.22C220.863 85.46 221.463 87.98 221.463 90.78C221.463 93.58 220.863 96.1 219.663 98.34C218.463 100.58 216.803 102.36 214.683 103.68C212.603 104.96 210.263 105.6 207.663 105.6ZM192.663 116.94V76.5H198.063V84L197.043 90.9L198.063 97.86V116.94H192.663ZM206.763 100.5C208.563 100.5 210.143 100.08 211.503 99.24C212.863 98.4 213.943 97.26 214.743 95.82C215.543 94.34 215.943 92.64 215.943 90.72C215.943 88.84 215.543 87.16 214.743 85.68C213.943 84.2 212.863 83.06 211.503 82.26C210.143 81.42 208.583 81 206.823 81C205.023 81 203.443 81.42 202.083 82.26C200.723 83.06 199.663 84.2 198.903 85.68C198.143 87.16 197.763 88.86 197.763 90.78C197.763 92.66 198.123 94.34 198.843 95.82C199.603 97.26 200.663 98.4 202.023 99.24C203.423 100.08 205.003 100.5 206.763 100.5ZM240.605 105.6C237.805 105.6 235.285 104.94 233.045 103.62C230.805 102.3 229.025 100.52 227.705 98.28C226.385 96 225.725 93.46 225.725 90.66C225.725 87.9 226.385 85.42 227.705 83.22C229.025 80.98 230.805 79.2 233.045 77.88C235.285 76.56 237.805 75.9 240.605 75.9C243.365 75.9 245.865 76.56 248.105 77.88C250.385 79.16 252.185 80.92 253.505 83.16C254.825 85.4 255.485 87.9 255.485 90.66C255.485 93.46 254.825 96 253.505 98.28C252.185 100.52 250.385 102.3 248.105 103.62C245.865 104.94 243.365 105.6 240.605 105.6ZM240.605 100.38C242.405 100.38 244.005 99.96 245.405 99.12C246.805 98.28 247.905 97.14 248.705 95.7C249.505 94.22 249.905 92.54 249.905 90.66C249.905 88.82 249.485 87.18 248.645 85.74C247.845 84.3 246.745 83.18 245.345 82.38C243.985 81.54 242.405 81.12 240.605 81.12C238.805 81.12 237.205 81.54 235.805 82.38C234.405 83.18 233.305 84.3 232.505 85.74C231.705 87.18 231.305 88.82 231.305 90.66C231.305 92.54 231.705 94.22 232.505 95.7C233.305 97.14 234.405 98.28 235.805 99.12C237.205 99.96 238.805 100.38 240.605 100.38ZM261.569 105V76.5H266.969V105H261.569ZM266.969 88.74L264.929 87.84C264.929 84.2 265.769 81.3 267.449 79.14C269.129 76.98 271.549 75.9 274.709 75.9C276.149 75.9 277.449 76.16 278.609 76.68C279.769 77.16 280.849 77.98 281.849 79.14L278.309 82.8C277.709 82.16 277.049 81.7 276.329 81.42C275.609 81.14 274.769 81 273.809 81C271.809 81 270.169 81.64 268.889 82.92C267.609 84.2 266.969 86.14 266.969 88.74ZM285.711 105V76.5H291.111V105H285.711ZM288.411 70.8C287.411 70.8 286.591 70.48 285.951 69.84C285.311 69.16 284.991 68.32 284.991 67.32C284.991 66.36 285.311 65.56 285.951 64.92C286.591 64.24 287.411 63.9 288.411 63.9C289.411 63.9 290.231 64.24 290.871 64.92C291.511 65.56 291.831 66.36 291.831 67.32C291.831 68.32 291.511 69.16 290.871 69.84C290.231 70.48 289.411 70.8 288.411 70.8ZM296.789 102.06L313.709 79.44H320.069L303.149 102.06H296.789ZM296.789 105V102.06L301.589 100.08H319.709V105H296.789ZM297.809 81.42V76.5H320.069V79.44L315.089 81.42H297.809ZM337.498 105.6C334.898 105.6 332.538 104.96 330.418 103.68C328.298 102.36 326.618 100.58 325.378 98.34C324.178 96.1 323.578 93.58 323.578 90.78C323.578 87.98 324.178 85.46 325.378 83.22C326.618 80.98 328.278 79.2 330.358 77.88C332.478 76.56 334.858 75.9 337.498 75.9C339.658 75.9 341.578 76.36 343.258 77.28C344.978 78.16 346.358 79.4 347.398 81C348.438 82.56 349.018 84.38 349.138 86.46V95.04C349.018 97.08 348.438 98.9 347.398 100.5C346.398 102.1 345.038 103.36 343.318 104.28C341.638 105.16 339.698 105.6 337.498 105.6ZM338.398 100.5C341.078 100.5 343.238 99.6 344.878 97.8C346.518 95.96 347.338 93.62 347.338 90.78C347.338 88.82 346.958 87.12 346.198 85.68C345.478 84.2 344.438 83.06 343.078 82.26C341.718 81.42 340.138 81 338.338 81C336.538 81 334.938 81.42 333.538 82.26C332.178 83.1 331.098 84.26 330.298 85.74C329.538 87.18 329.158 88.84 329.158 90.72C329.158 92.64 329.538 94.34 330.298 95.82C331.098 97.26 332.198 98.4 333.598 99.24C334.998 100.08 336.598 100.5 338.398 100.5ZM346.978 105V97.32L347.998 90.36L346.978 83.46V76.5H352.438V105H346.978ZM372.36 105.6C369.72 105.6 367.36 104.96 365.28 103.68C363.2 102.36 361.54 100.58 360.3 98.34C359.1 96.1 358.5 93.58 358.5 90.78C358.5 87.98 359.1 85.46 360.3 83.22C361.54 80.98 363.2 79.2 365.28 77.88C367.36 76.56 369.72 75.9 372.36 75.9C374.48 75.9 376.4 76.36 378.12 77.28C379.84 78.16 381.22 79.4 382.26 81C383.34 82.56 383.94 84.38 384.06 86.46V95.04C383.94 97.08 383.36 98.9 382.32 100.5C381.28 102.1 379.9 103.36 378.18 104.28C376.46 105.16 374.52 105.6 372.36 105.6ZM373.26 100.5C375.06 100.5 376.62 100.08 377.94 99.24C379.3 98.4 380.36 97.26 381.12 95.82C381.88 94.34 382.26 92.66 382.26 90.78C382.26 88.82 381.86 87.12 381.06 85.68C380.3 84.24 379.24 83.1 377.88 82.26C376.56 81.42 375 81 373.2 81C371.4 81 369.82 81.42 368.46 82.26C367.1 83.1 366.02 84.26 365.22 85.74C364.46 87.18 364.08 88.84 364.08 90.72C364.08 92.64 364.46 94.34 365.22 95.82C366.02 97.26 367.1 98.4 368.46 99.24C369.86 100.08 371.46 100.5 373.26 100.5ZM387.36 105H381.9V97.32L382.92 90.36L381.9 83.46V62.16H387.36V105ZM408.242 105.6C405.442 105.6 402.922 104.94 400.682 103.62C398.442 102.3 396.662 100.52 395.342 98.28C394.022 96 393.362 93.46 393.362 90.66C393.362 87.9 394.022 85.42 395.342 83.22C396.662 80.98 398.442 79.2 400.682 77.88C402.922 76.56 405.442 75.9 408.242 75.9C411.002 75.9 413.502 76.56 415.742 77.88C418.022 79.16 419.822 80.92 421.142 83.16C422.462 85.4 423.122 87.9 423.122 90.66C423.122 93.46 422.462 96 421.142 98.28C419.822 100.52 418.022 102.3 415.742 103.62C413.502 104.94 411.002 105.6 408.242 105.6ZM408.242 100.38C410.042 100.38 411.642 99.96 413.042 99.12C414.442 98.28 415.542 97.14 416.342 95.7C417.142 94.22 417.542 92.54 417.542 90.66C417.542 88.82 417.122 87.18 416.282 85.74C415.482 84.3 414.382 83.18 412.982 82.38C411.622 81.54 410.042 81.12 408.242 81.12C406.442 81.12 404.842 81.54 403.442 82.38C402.042 83.18 400.942 84.3 400.142 85.74C399.342 87.18 398.942 88.82 398.942 90.66C398.942 92.54 399.342 94.22 400.142 95.7C400.942 97.14 402.042 98.28 403.442 99.12C404.842 99.96 406.442 100.38 408.242 100.38ZM429.206 105V76.5H434.606V105H429.206ZM434.606 88.74L432.566 87.84C432.566 84.2 433.406 81.3 435.086 79.14C436.766 76.98 439.186 75.9 442.346 75.9C443.786 75.9 445.086 76.16 446.246 76.68C447.406 77.16 448.486 77.98 449.486 79.14L445.946 82.8C445.346 82.16 444.686 81.7 443.966 81.42C443.246 81.14 442.406 81 441.446 81C439.446 81 437.806 81.64 436.526 82.92C435.246 84.2 434.606 86.14 434.606 88.74Z" fill="black"/>
<rect x="28" y="160" width="470" height="390" rx="30" fill="#F8D858"/>
<path d="M157.996 335.2C151.356 335.2 145.356 333.4 139.996 329.8C134.636 326.2 130.356 321.12 127.156 314.56C124.036 308 122.476 300.36 122.476 291.64C122.476 282.92 124.036 275.32 127.156 268.84C130.276 262.36 134.476 257.32 139.756 253.72C145.116 250.12 151.076 248.32 157.636 248.32C164.356 248.32 170.356 250.12 175.636 253.72C180.996 257.32 185.236 262.4 188.356 268.96C191.476 275.44 193.036 283.08 193.036 291.88C193.036 300.6 191.476 308.24 188.356 314.8C185.236 321.28 181.036 326.32 175.756 329.92C170.476 333.44 164.556 335.2 157.996 335.2ZM157.756 320.44C161.596 320.44 164.916 319.36 167.716 317.2C170.516 315.04 172.676 311.84 174.196 307.6C175.796 303.36 176.596 298.08 176.596 291.76C176.596 285.44 175.796 280.16 174.196 275.92C172.676 271.68 170.476 268.52 167.596 266.44C164.796 264.28 161.476 263.2 157.636 263.2C153.876 263.2 150.596 264.28 147.796 266.44C144.996 268.52 142.796 271.68 141.196 275.92C139.676 280.08 138.916 285.32 138.916 291.64C138.916 298.04 139.676 303.36 141.196 307.6C142.796 311.84 144.996 315.04 147.796 317.2C150.596 319.36 153.916 320.44 157.756 320.44ZM227.375 335.2C221.535 335.2 216.215 334.2 211.415 332.2C206.615 330.12 202.615 327.16 199.415 323.32L210.215 312.64C211.815 315.04 214.095 316.96 217.055 318.4C220.095 319.84 223.415 320.56 227.015 320.56C230.295 320.56 233.135 319.96 235.535 318.76C238.015 317.56 239.935 315.88 241.295 313.72C242.735 311.48 243.455 308.88 243.455 305.92C243.455 302.8 242.735 300.16 241.295 298C239.935 295.84 238.095 294.2 235.775 293.08C233.455 291.96 230.855 291.4 227.975 291.4C224.935 291.4 222.175 291.8 219.695 292.6C217.295 293.32 214.975 294.52 212.735 296.2L213.695 285.88C215.215 284.28 216.815 283 218.495 282.04C220.175 281 222.055 280.24 224.135 279.76C226.295 279.2 228.815 278.92 231.695 278.92C237.855 278.92 242.975 280.2 247.055 282.76C251.215 285.24 254.375 288.6 256.535 292.84C258.695 297 259.775 301.6 259.775 306.64C259.775 312.16 258.415 317.08 255.695 321.4C252.975 325.72 249.175 329.12 244.295 331.6C239.495 334 233.855 335.2 227.375 335.2ZM212.735 296.2L204.935 288.52L208.775 249.64H223.535L219.215 289.12L212.735 296.2ZM211.295 263.8L208.775 249.64H255.095V263.8H211.295ZM280.503 335.2C277.623 335.2 275.263 334.24 273.423 332.32C271.583 330.4 270.663 328.08 270.663 325.36C270.663 322.48 271.583 320.08 273.423 318.16C275.263 316.24 277.623 315.28 280.503 315.28C283.383 315.28 285.743 316.24 287.583 318.16C289.423 320.08 290.343 322.48 290.343 325.36C290.343 328.08 289.423 330.4 287.583 332.32C285.743 334.24 283.383 335.2 280.503 335.2ZM280.503 298.96C277.623 298.96 275.263 298 273.423 296.08C271.583 294.16 270.663 291.8 270.663 289C270.663 286.12 271.583 283.76 273.423 281.92C275.263 280 277.623 279.04 280.503 279.04C283.383 279.04 285.743 280 287.583 281.92C289.423 283.76 290.343 286.12 290.343 289C290.343 291.8 289.423 294.16 287.583 296.08C285.743 298 283.383 298.96 280.503 298.96ZM316.773 334V249.64H332.853V334H316.773ZM300.213 263.8V249.64H331.653V263.8H300.213ZM371.516 335.2C365.676 335.2 360.356 334.2 355.556 332.2C350.756 330.12 346.756 327.16 343.556 323.32L354.356 312.64C355.956 315.04 358.236 316.96 361.196 318.4C364.236 319.84 367.556 320.56 371.156 320.56C374.436 320.56 377.276 319.96 379.676 318.76C382.156 317.56 384.076 315.88 385.436 313.72C386.876 311.48 387.596 308.88 387.596 305.92C387.596 302.8 386.876 300.16 385.436 298C384.076 295.84 382.236 294.2 379.916 293.08C377.596 291.96 374.996 291.4 372.116 291.4C369.076 291.4 366.316 291.8 363.836 292.6C361.436 293.32 359.116 294.52 356.876 296.2L357.836 285.88C359.356 284.28 360.956 283 362.636 282.04C364.316 281 366.196 280.24 368.276 279.76C370.436 279.2 372.956 278.92 375.836 278.92C381.996 278.92 387.116 280.2 391.196 282.76C395.356 285.24 398.516 288.6 400.676 292.84C402.836 297 403.916 301.6 403.916 306.64C403.916 312.16 402.556 317.08 399.836 321.4C397.116 325.72 393.316 329.12 388.436 331.6C383.636 334 377.996 335.2 371.516 335.2ZM356.876 296.2L349.076 288.52L352.916 249.64H367.676L363.356 289.12L356.876 296.2ZM355.436 263.8L352.916 249.64H399.236V263.8H355.436Z" fill="black"/>
<rect x="143" y="410" width="110" height="110" rx="55" fill="white"/>
<path d="M185 445V485M212 445V485" stroke="black" stroke-width="8" stroke-linecap="round" stroke-linejoin="round"/>
<rect x="273" y="410" width="110" height="110" rx="55" fill="#FF6982"/>
<path d="M308 451.667C308 449.899 308.702 448.203 309.953 446.953C311.203 445.702 312.899 445 314.667 445H341.333C343.101 445 344.797 445.702 346.047 446.953C347.298 448.203 348 449.899 348 451.667V478.333C348 480.101 347.298 481.797 346.047 483.047C344.797 484.298 343.101 485 341.333 485H314.667C312.899 485 311.203 484.298 309.953 483.047C308.702 481.797 308 480.101 308 478.333V451.667Z" stroke="white" stroke-width="8" stroke-linecap="round" stroke-linejoin="round"/>
</svg>
