<svg width="1036" height="840" viewBox="0 0 1036 840" fill="none" xmlns="http://www.w3.org/2000/svg">
<rect x="4" y="4" width="1028" height="832" rx="54" fill="#FFF5F5"/>
<rect x="4" y="4" width="1028" height="832" rx="54" stroke="#F2F2F2" stroke-width="8"/>
<rect x="105.5" y="105.5" width="825" height="195" rx="32.5" stroke="#F2F2F2" stroke-width="5"/>
<path d="M202.999 259.251C216.261 259.251 228.979 253.983 238.356 244.606C243.005 239.968 246.693 234.457 249.206 228.39C251.719 222.322 253.008 215.817 252.999 209.25C253.007 202.682 251.717 196.177 249.203 190.11C246.689 184.042 243 178.531 238.349 173.894C228.562 164.106 215.499 159.25 202.912 146.75C187.374 159.25 184.249 178 184.249 190.5C171.749 184.25 167.643 173.894 167.643 173.894C158.266 183.271 152.998 195.989 152.998 209.25C152.998 222.511 158.266 235.229 167.643 244.606C177.02 253.983 189.738 259.251 202.999 259.251Z" stroke="black" stroke-width="8" stroke-linecap="round" stroke-linejoin="round"/>
<path d="M197.548 233.439C194.602 232.542 191.921 230.934 189.744 228.756C186.081 225.1 184.25 220.3 184.25 215.5H196.75L203.094 196.75C206.173 196.765 209.202 197.538 211.912 199.001C214.622 200.464 216.93 202.573 218.632 205.14C220.333 207.706 221.377 210.653 221.669 213.719C221.962 216.785 221.494 219.875 220.309 222.718C219.123 225.56 217.256 228.067 214.871 230.016C212.487 231.965 209.659 233.297 206.638 233.894C203.616 234.491 200.495 234.335 197.548 233.439Z" stroke="black" stroke-width="8" stroke-linecap="round" stroke-linejoin="round"/>
<path d="M304.046 166.92V163.76H311.566C313.193 163.76 314.446 163.347 315.326 162.52C316.206 161.693 316.646 160.573 316.646 159.16C316.646 157.827 316.206 156.72 315.326 155.84C314.473 154.96 313.233 154.52 311.606 154.52H304.046V151.24H311.726C313.486 151.24 315.019 151.587 316.326 152.28C317.633 152.947 318.633 153.867 319.326 155.04C320.046 156.213 320.406 157.56 320.406 159.08C320.406 160.653 320.046 162.027 319.326 163.2C318.633 164.373 317.633 165.293 316.326 165.96C315.019 166.6 313.486 166.92 311.726 166.92H304.046ZM301.526 179V151.24H305.286V179H301.526ZM317.526 179L307.446 166.56L311.006 165.32L322.286 179H317.526ZM332.99 179.4C331.256 179.4 329.683 178.973 328.27 178.12C326.856 177.24 325.736 176.053 324.91 174.56C324.11 173.067 323.71 171.387 323.71 169.52C323.71 167.653 324.11 165.973 324.91 164.48C325.736 162.987 326.843 161.8 328.23 160.92C329.643 160.04 331.23 159.6 332.99 159.6C334.43 159.6 335.71 159.907 336.83 160.52C337.976 161.107 338.896 161.933 339.59 163C340.283 164.04 340.67 165.253 340.75 166.64V172.36C340.67 173.72 340.283 174.933 339.59 176C338.923 177.067 338.016 177.907 336.87 178.52C335.75 179.107 334.456 179.4 332.99 179.4ZM333.59 176C335.376 176 336.816 175.4 337.91 174.2C339.003 172.973 339.55 171.413 339.55 169.52C339.55 168.213 339.296 167.08 338.79 166.12C338.31 165.133 337.616 164.373 336.71 163.84C335.803 163.28 334.75 163 333.55 163C332.35 163 331.283 163.28 330.35 163.84C329.443 164.4 328.723 165.173 328.19 166.16C327.683 167.12 327.43 168.227 327.43 169.48C327.43 170.76 327.683 171.893 328.19 172.88C328.723 173.84 329.456 174.6 330.39 175.16C331.323 175.72 332.39 176 333.59 176ZM339.31 179V173.88L339.99 169.24L339.31 164.64V160H342.95V179H339.31ZM356.871 179.4C355.004 179.4 353.311 178.96 351.791 178.08C350.297 177.2 349.111 176.013 348.231 174.52C347.377 173 346.951 171.32 346.951 169.48C346.951 167.613 347.377 165.933 348.231 164.44C349.111 162.947 350.297 161.773 351.791 160.92C353.311 160.04 355.004 159.6 356.871 159.6C358.337 159.6 359.697 159.88 360.951 160.44C362.204 160.973 363.284 161.76 364.191 162.8L361.791 165.2C361.204 164.507 360.484 163.987 359.631 163.64C358.804 163.267 357.884 163.08 356.871 163.08C355.671 163.08 354.604 163.36 353.671 163.92C352.737 164.453 352.004 165.2 351.471 166.16C350.937 167.12 350.671 168.227 350.671 169.48C350.671 170.733 350.937 171.84 351.471 172.8C352.004 173.76 352.737 174.52 353.671 175.08C354.604 175.64 355.671 175.92 356.871 175.92C357.884 175.92 358.804 175.747 359.631 175.4C360.484 175.027 361.217 174.493 361.831 173.8L364.191 176.2C363.311 177.213 362.231 178 360.951 178.56C359.697 179.12 358.337 179.4 356.871 179.4ZM381.201 179V167.92C381.201 166.48 380.748 165.293 379.841 164.36C378.934 163.427 377.761 162.96 376.321 162.96C375.361 162.96 374.508 163.173 373.761 163.6C373.014 164.027 372.428 164.613 372.001 165.36C371.574 166.107 371.361 166.96 371.361 167.92L369.881 167.08C369.881 165.64 370.201 164.36 370.841 163.24C371.481 162.12 372.374 161.24 373.521 160.6C374.668 159.933 375.961 159.6 377.401 159.6C378.841 159.6 380.108 159.92 381.201 160.56C382.321 161.2 383.201 162.093 383.841 163.24C384.481 164.387 384.801 165.707 384.801 167.2V179H381.201ZM367.761 179V150.44H371.361V179H367.761ZM397.755 179.4C396.022 179.4 394.448 178.973 393.035 178.12C391.622 177.24 390.502 176.053 389.675 174.56C388.875 173.067 388.475 171.387 388.475 169.52C388.475 167.653 388.875 165.973 389.675 164.48C390.502 162.987 391.608 161.8 392.995 160.92C394.408 160.04 395.995 159.6 397.755 159.6C399.195 159.6 400.475 159.907 401.595 160.52C402.742 161.107 403.662 161.933 404.355 163C405.048 164.04 405.435 165.253 405.515 166.64V172.36C405.435 173.72 405.048 174.933 404.355 176C403.688 177.067 402.782 177.907 401.635 178.52C400.515 179.107 399.222 179.4 397.755 179.4ZM398.355 176C400.142 176 401.582 175.4 402.675 174.2C403.768 172.973 404.315 171.413 404.315 169.52C404.315 168.213 404.062 167.08 403.555 166.12C403.075 165.133 402.382 164.373 401.475 163.84C400.568 163.28 399.515 163 398.315 163C397.115 163 396.048 163.28 395.115 163.84C394.208 164.4 393.488 165.173 392.955 166.16C392.448 167.12 392.195 168.227 392.195 169.48C392.195 170.76 392.448 171.893 392.955 172.88C393.488 173.84 394.222 174.6 395.155 175.16C396.088 175.72 397.155 176 398.355 176ZM404.075 179V173.88L404.755 169.24L404.075 164.64V160H407.715V179H404.075ZM429.357 179.4C427.623 179.4 426.05 178.973 424.637 178.12C423.223 177.24 422.103 176.053 421.277 174.56C420.477 173.067 420.077 171.387 420.077 169.52C420.077 167.653 420.477 165.973 421.277 164.48C422.103 162.987 423.21 161.8 424.597 160.92C426.01 160.04 427.597 159.6 429.357 159.6C430.797 159.6 432.077 159.907 433.197 160.52C434.343 161.107 435.263 161.933 435.957 163C436.65 164.04 437.037 165.253 437.117 166.64V172.36C437.037 173.72 436.65 174.933 435.957 176C435.29 177.067 434.383 177.907 433.237 178.52C432.117 179.107 430.823 179.4 429.357 179.4ZM429.957 176C431.743 176 433.183 175.4 434.277 174.2C435.37 172.973 435.917 171.413 435.917 169.52C435.917 168.213 435.663 167.08 435.157 166.12C434.677 165.133 433.983 164.373 433.077 163.84C432.17 163.28 431.117 163 429.917 163C428.717 163 427.65 163.28 426.717 163.84C425.81 164.4 425.09 165.173 424.557 166.16C424.05 167.12 423.797 168.227 423.797 169.48C423.797 170.76 424.05 171.893 424.557 172.88C425.09 173.84 425.823 174.6 426.757 175.16C427.69 175.72 428.757 176 429.957 176ZM435.677 179V173.88L436.357 169.24L435.677 164.64V160H439.317V179H435.677ZM453.238 179.4C451.371 179.4 449.678 178.96 448.158 178.08C446.665 177.2 445.478 176.013 444.598 174.52C443.745 173 443.318 171.32 443.318 169.48C443.318 167.613 443.745 165.933 444.598 164.44C445.478 162.947 446.665 161.773 448.158 160.92C449.678 160.04 451.371 159.6 453.238 159.6C454.705 159.6 456.065 159.88 457.318 160.44C458.571 160.973 459.651 161.76 460.558 162.8L458.158 165.2C457.571 164.507 456.851 163.987 455.998 163.64C455.171 163.267 454.251 163.08 453.238 163.08C452.038 163.08 450.971 163.36 450.038 163.92C449.105 164.453 448.371 165.2 447.838 166.16C447.305 167.12 447.038 168.227 447.038 169.48C447.038 170.733 447.305 171.84 447.838 172.8C448.371 173.76 449.105 174.52 450.038 175.08C450.971 175.64 452.038 175.92 453.238 175.92C454.251 175.92 455.171 175.747 455.998 175.4C456.851 175.027 457.585 174.493 458.198 173.8L460.558 176.2C459.678 177.213 458.598 178 457.318 178.56C456.065 179.12 454.705 179.4 453.238 179.4ZM466.814 179V152.04H470.414V179H466.814ZM462.134 163.28V160H475.094V163.28H462.134ZM486.26 179.4C484.714 179.4 483.314 179.053 482.06 178.36C480.834 177.64 479.874 176.653 479.18 175.4C478.487 174.147 478.14 172.693 478.14 171.04V160H481.74V170.88C481.74 171.92 481.914 172.827 482.26 173.6C482.634 174.347 483.167 174.92 483.86 175.32C484.554 175.72 485.367 175.92 486.3 175.92C487.714 175.92 488.82 175.48 489.62 174.6C490.42 173.693 490.82 172.453 490.82 170.88V160H494.42V171.04C494.42 172.693 494.074 174.147 493.38 175.4C492.687 176.653 491.727 177.64 490.5 178.36C489.3 179.053 487.887 179.4 486.26 179.4ZM507.325 179.4C505.592 179.4 504.019 178.973 502.605 178.12C501.192 177.24 500.072 176.053 499.245 174.56C498.445 173.067 498.045 171.387 498.045 169.52C498.045 167.653 498.445 165.973 499.245 164.48C500.072 162.987 501.179 161.8 502.565 160.92C503.979 160.04 505.565 159.6 507.325 159.6C508.765 159.6 510.045 159.907 511.165 160.52C512.312 161.107 513.232 161.933 513.925 163C514.619 164.04 515.005 165.253 515.085 166.64V172.36C515.005 173.72 514.619 174.933 513.925 176C513.259 177.067 512.352 177.907 511.205 178.52C510.085 179.107 508.792 179.4 507.325 179.4ZM507.925 176C509.712 176 511.152 175.4 512.245 174.2C513.339 172.973 513.885 171.413 513.885 169.52C513.885 168.213 513.632 167.08 513.125 166.12C512.645 165.133 511.952 164.373 511.045 163.84C510.139 163.28 509.085 163 507.885 163C506.685 163 505.619 163.28 504.685 163.84C503.779 164.4 503.059 165.173 502.525 166.16C502.019 167.12 501.765 168.227 501.765 169.48C501.765 170.76 502.019 171.893 502.525 172.88C503.059 173.84 503.792 174.6 504.725 175.16C505.659 175.72 506.725 176 507.925 176ZM513.645 179V173.88L514.325 169.24L513.645 164.64V160H517.285V179H513.645ZM522.527 179V150.44H526.127V179H522.527Z" fill="black"/>
<path d="M300.359 235.16L319.559 198.76H331.559L311.879 235.16H300.359ZM300.359 241.56V235.16L304.359 232.04H344.679V241.56H300.359ZM326.919 255V219.16H337.639V255H326.919ZM383.226 255.8C379.652 255.8 376.452 254.92 373.626 253.16C370.799 251.4 368.559 249 366.906 245.96C365.306 242.92 364.506 239.507 364.506 235.72C364.506 231.88 365.306 228.44 366.906 225.4C368.559 222.36 370.772 219.96 373.546 218.2C376.372 216.44 379.599 215.56 383.226 215.56C385.999 215.56 388.479 216.12 390.666 217.24C392.906 218.36 394.692 219.933 396.026 221.96C397.412 223.933 398.159 226.173 398.266 228.68V242.44C398.159 244.947 397.439 247.213 396.106 249.24C394.772 251.267 392.986 252.867 390.746 254.04C388.506 255.213 385.999 255.8 383.226 255.8ZM384.986 246.12C386.959 246.12 388.666 245.693 390.106 244.84C391.599 243.933 392.746 242.707 393.546 241.16C394.399 239.56 394.826 237.72 394.826 235.64C394.826 233.613 394.399 231.827 393.546 230.28C392.746 228.68 391.599 227.453 390.106 226.6C388.666 225.693 386.986 225.24 385.066 225.24C383.092 225.24 381.359 225.693 379.866 226.6C378.426 227.507 377.279 228.733 376.426 230.28C375.626 231.827 375.226 233.613 375.226 235.64C375.226 237.72 375.626 239.56 376.426 241.16C377.279 242.707 378.452 243.933 379.946 244.84C381.439 245.693 383.119 246.12 384.986 246.12ZM404.666 255H394.266V244.6L395.946 235.16L394.186 225.88V197.16H404.666V255ZM413.937 255V216.36H424.417V255H413.937ZM414.017 211.4L410.017 206.44L421.537 193.96L428.257 202.12L414.017 211.4ZM449.863 255.8C446.343 255.8 443.169 254.92 440.343 253.16C437.516 251.4 435.303 249 433.703 245.96C432.103 242.92 431.303 239.507 431.303 235.72C431.303 231.88 432.103 228.44 433.703 225.4C435.303 222.36 437.516 219.96 440.343 218.2C443.169 216.44 446.343 215.56 449.863 215.56C452.636 215.56 455.116 216.12 457.303 217.24C459.489 218.36 461.223 219.933 462.503 221.96C463.836 223.933 464.556 226.173 464.663 228.68V242.6C464.556 245.16 463.836 247.427 462.503 249.4C461.223 251.373 459.489 252.947 457.303 254.12C455.116 255.24 452.636 255.8 449.863 255.8ZM451.783 246.12C454.716 246.12 457.089 245.16 458.903 243.24C460.716 241.267 461.623 238.733 461.623 235.64C461.623 233.613 461.196 231.827 460.343 230.28C459.543 228.68 458.396 227.453 456.903 226.6C455.463 225.693 453.756 225.24 451.783 225.24C449.863 225.24 448.156 225.693 446.663 226.6C445.223 227.453 444.076 228.68 443.223 230.28C442.423 231.827 442.023 233.613 442.023 235.64C442.023 237.72 442.423 239.56 443.223 241.16C444.076 242.707 445.223 243.933 446.663 244.84C448.156 245.693 449.863 246.12 451.783 246.12ZM461.063 255V244.6L462.743 235.16L461.063 225.88V216.36H471.463V255H461.063ZM494.014 255.88C491.827 255.88 489.667 255.587 487.534 255C485.454 254.413 483.534 253.613 481.774 252.6C480.014 251.533 478.494 250.253 477.214 248.76L483.454 242.44C484.787 243.933 486.334 245.053 488.094 245.8C489.854 246.547 491.8 246.92 493.934 246.92C495.64 246.92 496.92 246.68 497.774 246.2C498.68 245.72 499.134 245 499.134 244.04C499.134 242.973 498.654 242.147 497.694 241.56C496.787 240.973 495.587 240.493 494.094 240.12C492.6 239.693 491.027 239.24 489.374 238.76C487.774 238.227 486.227 237.56 484.734 236.76C483.24 235.907 482.014 234.76 481.054 233.32C480.147 231.827 479.694 229.907 479.694 227.56C479.694 225.107 480.28 222.973 481.454 221.16C482.68 219.347 484.414 217.933 486.654 216.92C488.894 215.907 491.534 215.4 494.574 215.4C497.774 215.4 500.654 215.96 503.214 217.08C505.827 218.2 507.987 219.88 509.694 222.12L503.374 228.44C502.2 227 500.867 225.96 499.374 225.32C497.934 224.68 496.36 224.36 494.654 224.36C493.107 224.36 491.907 224.6 491.054 225.08C490.254 225.56 489.854 226.227 489.854 227.08C489.854 228.04 490.307 228.787 491.214 229.32C492.174 229.853 493.4 230.333 494.894 230.76C496.387 231.133 497.934 231.587 499.534 232.12C501.187 232.6 502.734 233.293 504.174 234.2C505.667 235.107 506.867 236.307 507.774 237.8C508.734 239.293 509.214 241.213 509.214 243.56C509.214 247.347 507.854 250.36 505.134 252.6C502.414 254.787 498.707 255.88 494.014 255.88Z" fill="black"/>
<rect x="105.5" y="315.5" width="405" height="202" rx="32.5" stroke="#F2F2F2" stroke-width="5"/>
<path d="M135.291 356.958L141.124 362.792L155.708 348.208" stroke="black" stroke-width="3" stroke-linecap="round" stroke-linejoin="round"/>
<path d="M177.094 367.85C175.344 367.85 173.722 367.535 172.229 366.905C170.735 366.252 169.429 365.353 168.309 364.21C167.212 363.067 166.36 361.737 165.754 360.22C165.147 358.703 164.844 357.082 164.844 355.355C164.844 353.605 165.147 351.972 165.754 350.455C166.36 348.938 167.212 347.62 168.309 346.5C169.429 345.357 170.724 344.47 172.194 343.84C173.687 343.187 175.309 342.86 177.059 342.86C178.972 342.86 180.652 343.187 182.099 343.84C183.545 344.493 184.829 345.38 185.949 346.5L183.674 348.775C182.904 347.912 181.959 347.235 180.839 346.745C179.742 346.255 178.482 346.01 177.059 346.01C175.775 346.01 174.597 346.243 173.524 346.71C172.45 347.153 171.517 347.795 170.724 348.635C169.93 349.475 169.312 350.467 168.869 351.61C168.449 352.753 168.239 354.002 168.239 355.355C168.239 356.708 168.449 357.957 168.869 359.1C169.312 360.243 169.93 361.235 170.724 362.075C171.517 362.915 172.45 363.568 173.524 364.035C174.597 364.478 175.775 364.7 177.059 364.7C178.575 364.7 179.894 364.455 181.014 363.965C182.134 363.452 183.079 362.763 183.849 361.9L186.124 364.14C185.004 365.307 183.685 366.217 182.169 366.87C180.675 367.523 178.984 367.85 177.094 367.85ZM196.619 367.85C194.986 367.85 193.516 367.465 192.209 366.695C190.903 365.925 189.864 364.887 189.094 363.58C188.324 362.25 187.939 360.768 187.939 359.135C187.939 357.525 188.324 356.078 189.094 354.795C189.864 353.488 190.903 352.45 192.209 351.68C193.516 350.91 194.986 350.525 196.619 350.525C198.229 350.525 199.688 350.91 200.994 351.68C202.324 352.427 203.374 353.453 204.144 354.76C204.914 356.067 205.299 357.525 205.299 359.135C205.299 360.768 204.914 362.25 204.144 363.58C203.374 364.887 202.324 365.925 200.994 366.695C199.688 367.465 198.229 367.85 196.619 367.85ZM196.619 364.805C197.669 364.805 198.603 364.56 199.419 364.07C200.236 363.58 200.878 362.915 201.344 362.075C201.811 361.212 202.044 360.232 202.044 359.135C202.044 358.062 201.799 357.105 201.309 356.265C200.843 355.425 200.201 354.772 199.384 354.305C198.591 353.815 197.669 353.57 196.619 353.57C195.569 353.57 194.636 353.815 193.819 354.305C193.003 354.772 192.361 355.425 191.894 356.265C191.428 357.105 191.194 358.062 191.194 359.135C191.194 360.232 191.428 361.212 191.894 362.075C192.361 362.915 193.003 363.58 193.819 364.07C194.636 364.56 195.569 364.805 196.619 364.805ZM208.849 367.5V350.875H211.999V367.5H208.849ZM220.084 367.5V357.455C220.084 356.218 219.699 355.25 218.929 354.55C218.182 353.827 217.237 353.465 216.094 353.465C215.324 353.465 214.635 353.628 214.029 353.955C213.422 354.282 212.932 354.737 212.559 355.32C212.185 355.903 211.999 356.603 211.999 357.42L210.704 356.79C210.704 355.53 210.972 354.433 211.509 353.5C212.069 352.567 212.827 351.843 213.784 351.33C214.74 350.793 215.814 350.525 217.004 350.525C218.17 350.525 219.22 350.782 220.154 351.295C221.11 351.808 221.857 352.532 222.394 353.465C222.954 354.398 223.234 355.507 223.234 356.79V367.5H220.084ZM231.319 367.5V357.455C231.319 356.218 230.934 355.25 230.164 354.55C229.417 353.827 228.484 353.465 227.364 353.465C226.594 353.465 225.894 353.628 225.264 353.955C224.657 354.282 224.167 354.737 223.794 355.32C223.42 355.903 223.234 356.603 223.234 357.42L221.449 356.79C221.519 355.507 221.857 354.41 222.464 353.5C223.094 352.567 223.899 351.843 224.879 351.33C225.859 350.793 226.932 350.525 228.099 350.525C229.312 350.525 230.397 350.782 231.354 351.295C232.31 351.808 233.069 352.532 233.629 353.465C234.212 354.398 234.504 355.518 234.504 356.825V367.5H231.319ZM247.54 367.85C246.28 367.85 245.137 367.593 244.11 367.08C243.107 366.543 242.302 365.808 241.695 364.875C241.088 363.942 240.75 362.88 240.68 361.69V356.685C240.75 355.472 241.088 354.41 241.695 353.5C242.325 352.567 243.142 351.843 244.145 351.33C245.172 350.793 246.303 350.525 247.54 350.525C249.057 350.525 250.422 350.91 251.635 351.68C252.872 352.45 253.84 353.488 254.54 354.795C255.24 356.102 255.59 357.572 255.59 359.205C255.59 360.838 255.24 362.308 254.54 363.615C253.84 364.922 252.872 365.96 251.635 366.73C250.422 367.477 249.057 367.85 247.54 367.85ZM238.79 374.465V350.875H241.94V355.25L241.345 359.275L241.94 363.335V374.465H238.79ZM247.015 364.875C248.065 364.875 248.987 364.63 249.78 364.14C250.573 363.65 251.203 362.985 251.67 362.145C252.137 361.282 252.37 360.29 252.37 359.17C252.37 358.073 252.137 357.093 251.67 356.23C251.203 355.367 250.573 354.702 249.78 354.235C248.987 353.745 248.077 353.5 247.05 353.5C246 353.5 245.078 353.745 244.285 354.235C243.492 354.702 242.873 355.367 242.43 356.23C241.987 357.093 241.765 358.085 241.765 359.205C241.765 360.302 241.975 361.282 242.395 362.145C242.838 362.985 243.457 363.65 244.25 364.14C245.067 364.63 245.988 364.875 247.015 364.875ZM259.161 367.5V342.51H262.311V367.5H259.161ZM274.62 367.85C272.963 367.85 271.47 367.477 270.14 366.73C268.81 365.96 267.76 364.922 266.99 363.615C266.22 362.308 265.835 360.827 265.835 359.17C265.835 357.537 266.208 356.067 266.955 354.76C267.725 353.453 268.752 352.427 270.035 351.68C271.342 350.91 272.8 350.525 274.41 350.525C275.95 350.525 277.303 350.875 278.47 351.575C279.66 352.275 280.582 353.243 281.235 354.48C281.912 355.717 282.25 357.117 282.25 358.68C282.25 358.913 282.238 359.17 282.215 359.45C282.192 359.707 282.145 360.01 282.075 360.36H268.04V357.735H280.395L279.24 358.75C279.24 357.63 279.042 356.685 278.645 355.915C278.248 355.122 277.688 354.515 276.965 354.095C276.242 353.652 275.367 353.43 274.34 353.43C273.267 353.43 272.322 353.663 271.505 354.13C270.688 354.597 270.058 355.25 269.615 356.09C269.172 356.93 268.95 357.922 268.95 359.065C268.95 360.232 269.183 361.258 269.65 362.145C270.117 363.008 270.782 363.685 271.645 364.175C272.508 364.642 273.5 364.875 274.62 364.875C275.553 364.875 276.405 364.712 277.175 364.385C277.968 364.058 278.645 363.568 279.205 362.915L281.235 364.98C280.442 365.913 279.462 366.625 278.295 367.115C277.152 367.605 275.927 367.85 274.62 367.85ZM287.727 367.5V343.91H290.877V367.5H287.727ZM283.632 353.745V350.875H294.972V353.745H283.632ZM304.615 367.85C303.098 367.85 301.722 367.477 300.485 366.73C299.248 365.96 298.268 364.922 297.545 363.615C296.845 362.308 296.495 360.838 296.495 359.205C296.495 357.572 296.845 356.102 297.545 354.795C298.268 353.488 299.237 352.45 300.45 351.68C301.687 350.91 303.075 350.525 304.615 350.525C305.875 350.525 306.995 350.793 307.975 351.33C308.978 351.843 309.783 352.567 310.39 353.5C310.997 354.41 311.335 355.472 311.405 356.685V361.69C311.335 362.88 310.997 363.942 310.39 364.875C309.807 365.808 309.013 366.543 308.01 367.08C307.03 367.593 305.898 367.85 304.615 367.85ZM305.14 364.875C306.703 364.875 307.963 364.35 308.92 363.3C309.877 362.227 310.355 360.862 310.355 359.205C310.355 358.062 310.133 357.07 309.69 356.23C309.27 355.367 308.663 354.702 307.87 354.235C307.077 353.745 306.155 353.5 305.105 353.5C304.055 353.5 303.122 353.745 302.305 354.235C301.512 354.725 300.882 355.402 300.415 356.265C299.972 357.105 299.75 358.073 299.75 359.17C299.75 360.29 299.972 361.282 300.415 362.145C300.882 362.985 301.523 363.65 302.34 364.14C303.157 364.63 304.09 364.875 305.14 364.875ZM310.145 367.5V363.02L310.74 358.96L310.145 354.935V350.875H313.33V367.5H310.145ZM324.951 367.85C323.411 367.85 322.034 367.477 320.821 366.73C319.608 365.96 318.639 364.922 317.916 363.615C317.216 362.308 316.866 360.838 316.866 359.205C316.866 357.572 317.216 356.102 317.916 354.795C318.639 353.488 319.608 352.45 320.821 351.68C322.034 350.91 323.411 350.525 324.951 350.525C326.188 350.525 327.308 350.793 328.311 351.33C329.314 351.843 330.119 352.567 330.726 353.5C331.356 354.41 331.706 355.472 331.776 356.685V361.69C331.706 362.88 331.368 363.942 330.761 364.875C330.154 365.808 329.349 366.543 328.346 367.08C327.343 367.593 326.211 367.85 324.951 367.85ZM325.476 364.875C326.526 364.875 327.436 364.63 328.206 364.14C328.999 363.65 329.618 362.985 330.061 362.145C330.504 361.282 330.726 360.302 330.726 359.205C330.726 358.062 330.493 357.07 330.026 356.23C329.583 355.39 328.964 354.725 328.171 354.235C327.401 353.745 326.491 353.5 325.441 353.5C324.391 353.5 323.469 353.745 322.676 354.235C321.883 354.725 321.253 355.402 320.786 356.265C320.343 357.105 320.121 358.073 320.121 359.17C320.121 360.29 320.343 361.282 320.786 362.145C321.253 362.985 321.883 363.65 322.676 364.14C323.493 364.63 324.426 364.875 325.476 364.875ZM333.701 367.5H330.516V363.02L331.111 358.96L330.516 354.935V342.51H333.701V367.5ZM345.882 367.85C344.249 367.85 342.779 367.465 341.472 366.695C340.165 365.925 339.127 364.887 338.357 363.58C337.587 362.25 337.202 360.768 337.202 359.135C337.202 357.525 337.587 356.078 338.357 354.795C339.127 353.488 340.165 352.45 341.472 351.68C342.779 350.91 344.249 350.525 345.882 350.525C347.492 350.525 348.95 350.91 350.257 351.68C351.587 352.427 352.637 353.453 353.407 354.76C354.177 356.067 354.562 357.525 354.562 359.135C354.562 360.768 354.177 362.25 353.407 363.58C352.637 364.887 351.587 365.925 350.257 366.695C348.95 367.465 347.492 367.85 345.882 367.85ZM345.882 364.805C346.932 364.805 347.865 364.56 348.682 364.07C349.499 363.58 350.14 362.915 350.607 362.075C351.074 361.212 351.307 360.232 351.307 359.135C351.307 358.062 351.062 357.105 350.572 356.265C350.105 355.425 349.464 354.772 348.647 354.305C347.854 353.815 346.932 353.57 345.882 353.57C344.832 353.57 343.899 353.815 343.082 354.305C342.265 354.772 341.624 355.425 341.157 356.265C340.69 357.105 340.457 358.062 340.457 359.135C340.457 360.232 340.69 361.212 341.157 362.075C341.624 362.915 342.265 363.58 343.082 364.07C343.899 364.56 344.832 364.805 345.882 364.805Z" fill="black"/>
<path d="M137.66 435V392.82H145.7V435H137.66ZM129.38 399.9V392.82H145.1V399.9H129.38ZM169.951 435.6C166.631 435.6 163.631 434.7 160.951 432.9C158.271 431.1 156.131 428.56 154.531 425.28C152.971 422 152.191 418.18 152.191 413.82C152.191 409.46 152.971 405.66 154.531 402.42C156.091 399.18 158.191 396.66 160.831 394.86C163.511 393.06 166.491 392.16 169.771 392.16C173.131 392.16 176.131 393.06 178.771 394.86C181.451 396.66 183.571 399.2 185.131 402.48C186.691 405.72 187.471 409.54 187.471 413.94C187.471 418.3 186.691 422.12 185.131 425.4C183.571 428.64 181.471 431.16 178.831 432.96C176.191 434.72 173.231 435.6 169.951 435.6ZM169.831 428.22C171.751 428.22 173.411 427.68 174.811 426.6C176.211 425.52 177.291 423.92 178.051 421.8C178.851 419.68 179.251 417.04 179.251 413.88C179.251 410.72 178.851 408.08 178.051 405.96C177.291 403.84 176.191 402.26 174.751 401.22C173.351 400.14 171.691 399.6 169.771 399.6C167.891 399.6 166.251 400.14 164.851 401.22C163.451 402.26 162.351 403.84 161.551 405.96C160.791 408.04 160.411 410.66 160.411 413.82C160.411 417.02 160.791 419.68 161.551 421.8C162.351 423.92 163.451 425.52 164.851 426.6C166.251 427.68 167.911 428.22 169.831 428.22ZM217.079 435.6C214.399 435.6 211.999 434.94 209.879 433.62C207.759 432.3 206.079 430.5 204.839 428.22C203.639 425.94 203.039 423.38 203.039 420.54C203.039 417.66 203.639 415.08 204.839 412.8C206.079 410.52 207.739 408.72 209.819 407.4C211.939 406.08 214.359 405.42 217.079 405.42C219.159 405.42 221.019 405.84 222.659 406.68C224.339 407.52 225.679 408.7 226.679 410.22C227.719 411.7 228.279 413.38 228.359 415.26V425.58C228.279 427.46 227.739 429.16 226.739 430.68C225.739 432.2 224.399 433.4 222.719 434.28C221.039 435.16 219.159 435.6 217.079 435.6ZM218.399 428.34C219.879 428.34 221.159 428.02 222.239 427.38C223.359 426.7 224.219 425.78 224.819 424.62C225.459 423.42 225.779 422.04 225.779 420.48C225.779 418.96 225.459 417.62 224.819 416.46C224.219 415.26 223.359 414.34 222.239 413.7C221.159 413.02 219.899 412.68 218.459 412.68C216.979 412.68 215.679 413.02 214.559 413.7C213.479 414.38 212.619 415.3 211.979 416.46C211.379 417.62 211.079 418.96 211.079 420.48C211.079 422.04 211.379 423.42 211.979 424.62C212.619 425.78 213.499 426.7 214.619 427.38C215.739 428.02 216.999 428.34 218.399 428.34ZM233.159 435H225.359V427.2L226.619 420.12L225.299 413.16V391.62H233.159V435ZM240.113 435V406.02H247.973V435H240.113ZM240.173 402.3L237.173 398.58L245.813 389.22L250.853 395.34L240.173 402.3ZM267.057 435.6C264.417 435.6 262.037 434.94 259.917 433.62C257.797 432.3 256.137 430.5 254.937 428.22C253.737 425.94 253.137 423.38 253.137 420.54C253.137 417.66 253.737 415.08 254.937 412.8C256.137 410.52 257.797 408.72 259.917 407.4C262.037 406.08 264.417 405.42 267.057 405.42C269.137 405.42 270.997 405.84 272.637 406.68C274.277 407.52 275.577 408.7 276.537 410.22C277.537 411.7 278.077 413.38 278.157 415.26V425.7C278.077 427.62 277.537 429.32 276.537 430.8C275.577 432.28 274.277 433.46 272.637 434.34C270.997 435.18 269.137 435.6 267.057 435.6ZM268.497 428.34C270.697 428.34 272.477 427.62 273.837 426.18C275.197 424.7 275.877 422.8 275.877 420.48C275.877 418.96 275.557 417.62 274.917 416.46C274.317 415.26 273.457 414.34 272.337 413.7C271.257 413.02 269.977 412.68 268.497 412.68C267.057 412.68 265.777 413.02 264.657 413.7C263.577 414.34 262.717 415.26 262.077 416.46C261.477 417.62 261.177 418.96 261.177 420.48C261.177 422.04 261.477 423.42 262.077 424.62C262.717 425.78 263.577 426.7 264.657 427.38C265.777 428.02 267.057 428.34 268.497 428.34ZM275.457 435V427.2L276.717 420.12L275.457 413.16V406.02H283.257V435H275.457ZM300.17 435.66C298.53 435.66 296.91 435.44 295.31 435C293.75 434.56 292.31 433.96 290.99 433.2C289.67 432.4 288.53 431.44 287.57 430.32L292.25 425.58C293.25 426.7 294.41 427.54 295.73 428.1C297.05 428.66 298.51 428.94 300.11 428.94C301.39 428.94 302.35 428.76 302.99 428.4C303.67 428.04 304.01 427.5 304.01 426.78C304.01 425.98 303.65 425.36 302.93 424.92C302.25 424.48 301.35 424.12 300.23 423.84C299.11 423.52 297.93 423.18 296.69 422.82C295.49 422.42 294.33 421.92 293.21 421.32C292.09 420.68 291.17 419.82 290.45 418.74C289.77 417.62 289.43 416.18 289.43 414.42C289.43 412.58 289.87 410.98 290.75 409.62C291.67 408.26 292.97 407.2 294.65 406.44C296.33 405.68 298.31 405.3 300.59 405.3C302.99 405.3 305.15 405.72 307.07 406.56C309.03 407.4 310.65 408.66 311.93 410.34L307.19 415.08C306.31 414 305.31 413.22 304.19 412.74C303.11 412.26 301.93 412.02 300.65 412.02C299.49 412.02 298.59 412.2 297.95 412.56C297.35 412.92 297.05 413.42 297.05 414.06C297.05 414.78 297.39 415.34 298.07 415.74C298.79 416.14 299.71 416.5 300.83 416.82C301.95 417.1 303.11 417.44 304.31 417.84C305.55 418.2 306.71 418.72 307.79 419.4C308.91 420.08 309.81 420.98 310.49 422.1C311.21 423.22 311.57 424.66 311.57 426.42C311.57 429.26 310.55 431.52 308.51 433.2C306.47 434.84 303.69 435.66 300.17 435.66Z" fill="black"/>
<path fill-rule="evenodd" clip-rule="evenodd" d="M157.415 480.414C157.04 480.789 156.531 481 156.001 481C155.47 481 154.962 480.789 154.587 480.414L148.001 473.828L141.415 480.414C141.038 480.778 140.532 480.98 140.008 480.975C139.484 480.971 138.982 480.761 138.611 480.39C138.24 480.019 138.03 479.517 138.025 478.993C138.021 478.468 138.222 477.963 138.587 477.586L146.587 469.586C146.962 469.211 147.47 469 148.001 469C148.531 469 149.04 469.211 149.415 469.586L157.415 477.586C157.79 477.961 158 478.47 158 479C158 479.53 157.79 480.039 157.415 480.414V480.414Z" fill="#5ED481"/>
<path d="M180.41 485.8C179.05 485.8 177.81 485.55 176.69 485.05C175.59 484.53 174.66 483.78 173.9 482.8L175.82 480.88C176.28 481.58 176.91 482.14 177.71 482.56C178.51 482.96 179.4 483.16 180.38 483.16C181.3 483.16 182.09 482.99 182.75 482.65C183.43 482.29 183.96 481.79 184.34 481.15C184.74 480.51 184.94 479.77 184.94 478.93C184.94 478.07 184.74 477.33 184.34 476.71C183.96 476.07 183.42 475.58 182.72 475.24C182.02 474.9 181.19 474.73 180.23 474.73C179.87 474.73 179.51 474.76 179.15 474.82C178.79 474.86 178.44 474.93 178.1 475.03L179.3 473.41C179.68 473.23 180.09 473.09 180.53 472.99C180.97 472.89 181.41 472.84 181.85 472.84C182.97 472.84 183.97 473.1 184.85 473.62C185.75 474.14 186.46 474.87 186.98 475.81C187.52 476.75 187.79 477.84 187.79 479.08C187.79 480.4 187.47 481.57 186.83 482.59C186.21 483.59 185.35 484.38 184.25 484.96C183.15 485.52 181.87 485.8 180.41 485.8ZM178.1 475.03V473.32L184.19 466.39L187.55 466.36L181.28 473.47L178.1 475.03ZM174.89 467.2V464.68H187.55V466.36L185.09 467.2H174.89ZM203.393 485.8C202.073 485.8 200.893 485.48 199.853 484.84C198.813 484.18 197.983 483.29 197.363 482.17C196.763 481.05 196.463 479.79 196.463 478.39C196.463 476.99 196.763 475.73 197.363 474.61C197.983 473.49 198.813 472.6 199.853 471.94C200.893 471.28 202.073 470.95 203.393 470.95C204.453 470.95 205.413 471.18 206.273 471.64C207.133 472.08 207.823 472.7 208.343 473.5C208.883 474.28 209.183 475.19 209.243 476.23V480.52C209.183 481.54 208.893 482.45 208.373 483.25C207.853 484.05 207.163 484.68 206.303 485.14C205.443 485.58 204.473 485.8 203.393 485.8ZM203.843 483.25C204.743 483.25 205.523 483.04 206.183 482.62C206.863 482.2 207.393 481.63 207.773 480.91C208.153 480.17 208.343 479.33 208.343 478.39C208.343 477.41 208.143 476.56 207.743 475.84C207.363 475.12 206.833 474.55 206.153 474.13C205.493 473.71 204.713 473.5 203.813 473.5C202.913 473.5 202.123 473.71 201.443 474.13C200.763 474.55 200.223 475.13 199.823 475.87C199.443 476.59 199.253 477.42 199.253 478.36C199.253 479.32 199.443 480.17 199.823 480.91C200.223 481.63 200.763 482.2 201.443 482.62C202.143 483.04 202.943 483.25 203.843 483.25ZM210.893 485.5H208.163V481.66L208.673 478.18L208.163 474.73V464.08H210.893V485.5ZM214.824 485.5V471.25H217.524V485.5H214.824ZM214.374 469.12L213.144 467.89L217.044 463.06L219.174 465.19L214.374 469.12ZM227.534 485.8C226.234 485.8 225.054 485.48 223.994 484.84C222.934 484.18 222.094 483.29 221.474 482.17C220.874 481.05 220.574 479.79 220.574 478.39C220.574 476.99 220.874 475.73 221.474 474.61C222.094 473.49 222.924 472.6 223.964 471.94C225.024 471.28 226.214 470.95 227.534 470.95C228.614 470.95 229.574 471.18 230.414 471.64C231.274 472.08 231.964 472.7 232.484 473.5C233.004 474.28 233.294 475.19 233.354 476.23V480.52C233.294 481.54 233.004 482.45 232.484 483.25C231.984 484.05 231.304 484.68 230.444 485.14C229.604 485.58 228.634 485.8 227.534 485.8ZM227.984 483.25C229.324 483.25 230.404 482.8 231.224 481.9C232.044 480.98 232.454 479.81 232.454 478.39C232.454 477.41 232.264 476.56 231.884 475.84C231.524 475.1 231.004 474.53 230.324 474.13C229.644 473.71 228.854 473.5 227.954 473.5C227.054 473.5 226.254 473.71 225.554 474.13C224.874 474.55 224.334 475.13 223.934 475.87C223.554 476.59 223.364 477.42 223.364 478.36C223.364 479.32 223.554 480.17 223.934 480.91C224.334 481.63 224.884 482.2 225.584 482.62C226.284 483.04 227.084 483.25 227.984 483.25ZM232.274 485.5V481.66L232.784 478.18L232.274 474.73V471.25H235.004V485.5H232.274ZM243.465 485.8C242.665 485.8 241.905 485.7 241.185 485.5C240.485 485.28 239.835 484.98 239.235 484.6C238.635 484.2 238.115 483.73 237.675 483.19L239.415 481.45C239.935 482.09 240.535 482.57 241.215 482.89C241.895 483.19 242.655 483.34 243.495 483.34C244.335 483.34 244.985 483.2 245.445 482.92C245.905 482.62 246.135 482.21 246.135 481.69C246.135 481.17 245.945 480.77 245.565 480.49C245.205 480.19 244.735 479.95 244.155 479.77C243.575 479.57 242.955 479.38 242.295 479.2C241.655 479 241.045 478.75 240.465 478.45C239.885 478.15 239.405 477.74 239.025 477.22C238.665 476.7 238.485 476.01 238.485 475.15C238.485 474.29 238.695 473.55 239.115 472.93C239.535 472.29 240.115 471.8 240.855 471.46C241.615 471.12 242.525 470.95 243.585 470.95C244.705 470.95 245.695 471.15 246.555 471.55C247.435 471.93 248.155 472.51 248.715 473.29L246.975 475.03C246.575 474.51 246.075 474.11 245.475 473.83C244.895 473.55 244.235 473.41 243.495 473.41C242.715 473.41 242.115 473.55 241.695 473.83C241.295 474.09 241.095 474.46 241.095 474.94C241.095 475.42 241.275 475.79 241.635 476.05C241.995 476.31 242.465 476.53 243.045 476.71C243.645 476.89 244.265 477.08 244.905 477.28C245.545 477.46 246.155 477.71 246.735 478.03C247.315 478.35 247.785 478.78 248.145 479.32C248.525 479.86 248.715 480.57 248.715 481.45C248.715 482.79 248.235 483.85 247.275 484.63C246.335 485.41 245.065 485.8 243.465 485.8Z" fill="black" fill-opacity="0.5"/>
<rect x="525.5" y="315.5" width="405" height="202" rx="32.5" stroke="#F2F2F2" stroke-width="5"/>
<path d="M556.75 346.75L574.25 364.25M556.75 364.25L574.25 346.75L556.75 364.25Z" stroke="black" stroke-width="3" stroke-linecap="round" stroke-linejoin="round"/>
<path d="M586.072 367.5V343.21H589.362V367.5H586.072ZM588.312 356.825V353.815H600.982V356.825H588.312ZM588.312 346.22V343.21H601.577V346.22H588.312ZM611.723 367.85C610.206 367.85 608.829 367.477 607.593 366.73C606.356 365.96 605.376 364.922 604.653 363.615C603.953 362.308 603.603 360.838 603.603 359.205C603.603 357.572 603.953 356.102 604.653 354.795C605.376 353.488 606.344 352.45 607.558 351.68C608.794 350.91 610.183 350.525 611.723 350.525C612.983 350.525 614.103 350.793 615.083 351.33C616.086 351.843 616.891 352.567 617.498 353.5C618.104 354.41 618.443 355.472 618.513 356.685V361.69C618.443 362.88 618.104 363.942 617.498 364.875C616.914 365.808 616.121 366.543 615.118 367.08C614.138 367.593 613.006 367.85 611.723 367.85ZM612.248 364.875C613.811 364.875 615.071 364.35 616.028 363.3C616.984 362.227 617.463 360.862 617.463 359.205C617.463 358.062 617.241 357.07 616.798 356.23C616.378 355.367 615.771 354.702 614.978 354.235C614.184 353.745 613.263 353.5 612.213 353.5C611.163 353.5 610.229 353.745 609.413 354.235C608.619 354.725 607.989 355.402 607.523 356.265C607.079 357.105 606.858 358.073 606.858 359.17C606.858 360.29 607.079 361.282 607.523 362.145C607.989 362.985 608.631 363.65 609.448 364.14C610.264 364.63 611.198 364.875 612.248 364.875ZM617.253 367.5V363.02L617.848 358.96L617.253 354.935V350.875H620.438V367.5H617.253ZM625.024 367.5V342.51H628.174V367.5H625.024ZM632.783 367.5V342.51H635.933V367.5H632.783ZM647.611 367.85C646.095 367.85 644.718 367.477 643.481 366.73C642.245 365.96 641.265 364.922 640.541 363.615C639.841 362.308 639.491 360.838 639.491 359.205C639.491 357.572 639.841 356.102 640.541 354.795C641.265 353.488 642.233 352.45 643.446 351.68C644.683 350.91 646.071 350.525 647.611 350.525C648.871 350.525 649.991 350.793 650.971 351.33C651.975 351.843 652.78 352.567 653.386 353.5C653.993 354.41 654.331 355.472 654.401 356.685V361.69C654.331 362.88 653.993 363.942 653.386 364.875C652.803 365.808 652.01 366.543 651.006 367.08C650.026 367.593 648.895 367.85 647.611 367.85ZM648.136 364.875C649.7 364.875 650.96 364.35 651.916 363.3C652.873 362.227 653.351 360.862 653.351 359.205C653.351 358.062 653.13 357.07 652.686 356.23C652.266 355.367 651.66 354.702 650.866 354.235C650.073 353.745 649.151 353.5 648.101 353.5C647.051 353.5 646.118 353.745 645.301 354.235C644.508 354.725 643.878 355.402 643.411 356.265C642.968 357.105 642.746 358.073 642.746 359.17C642.746 360.29 642.968 361.282 643.411 362.145C643.878 362.985 644.52 363.65 645.336 364.14C646.153 364.63 647.086 364.875 648.136 364.875ZM653.141 367.5V363.02L653.736 358.96L653.141 354.935V350.875H656.326V367.5H653.141ZM667.948 367.85C666.408 367.85 665.031 367.477 663.818 366.73C662.604 365.96 661.636 364.922 660.913 363.615C660.213 362.308 659.863 360.838 659.863 359.205C659.863 357.572 660.213 356.102 660.913 354.795C661.636 353.488 662.604 352.45 663.818 351.68C665.031 350.91 666.408 350.525 667.948 350.525C669.184 350.525 670.304 350.793 671.308 351.33C672.311 351.843 673.116 352.567 673.723 353.5C674.353 354.41 674.703 355.472 674.773 356.685V361.69C674.703 362.88 674.364 363.942 673.758 364.875C673.151 365.808 672.346 366.543 671.343 367.08C670.339 367.593 669.208 367.85 667.948 367.85ZM668.473 364.875C669.523 364.875 670.433 364.63 671.203 364.14C671.996 363.65 672.614 362.985 673.058 362.145C673.501 361.282 673.723 360.302 673.723 359.205C673.723 358.062 673.489 357.07 673.023 356.23C672.579 355.39 671.961 354.725 671.168 354.235C670.398 353.745 669.488 353.5 668.438 353.5C667.388 353.5 666.466 353.745 665.673 354.235C664.879 354.725 664.249 355.402 663.783 356.265C663.339 357.105 663.118 358.073 663.118 359.17C663.118 360.29 663.339 361.282 663.783 362.145C664.249 362.985 664.879 363.65 665.673 364.14C666.489 364.63 667.423 364.875 668.473 364.875ZM676.698 367.5H673.513V363.02L674.108 358.96L673.513 354.935V342.51H676.698V367.5ZM688.879 367.85C687.245 367.85 685.775 367.465 684.469 366.695C683.162 365.925 682.124 364.887 681.354 363.58C680.584 362.25 680.199 360.768 680.199 359.135C680.199 357.525 680.584 356.078 681.354 354.795C682.124 353.488 683.162 352.45 684.469 351.68C685.775 350.91 687.245 350.525 688.879 350.525C690.489 350.525 691.947 350.91 693.254 351.68C694.584 352.427 695.634 353.453 696.404 354.76C697.174 356.067 697.559 357.525 697.559 359.135C697.559 360.768 697.174 362.25 696.404 363.58C695.634 364.887 694.584 365.925 693.254 366.695C691.947 367.465 690.489 367.85 688.879 367.85ZM688.879 364.805C689.929 364.805 690.862 364.56 691.679 364.07C692.495 363.58 693.137 362.915 693.604 362.075C694.07 361.212 694.304 360.232 694.304 359.135C694.304 358.062 694.059 357.105 693.569 356.265C693.102 355.425 692.46 354.772 691.644 354.305C690.85 353.815 689.929 353.57 688.879 353.57C687.829 353.57 686.895 353.815 686.079 354.305C685.262 354.772 684.62 355.425 684.154 356.265C683.687 357.105 683.454 358.062 683.454 359.135C683.454 360.232 683.687 361.212 684.154 362.075C684.62 362.915 685.262 363.58 686.079 364.07C686.895 364.56 687.829 364.805 688.879 364.805Z" fill="black"/>
<path d="M557.66 435V392.82H565.7V435H557.66ZM549.38 399.9V392.82H565.1V399.9H549.38ZM597.47 435.6C594.79 435.6 592.39 434.94 590.27 433.62C588.15 432.3 586.47 430.5 585.23 428.22C584.03 425.94 583.43 423.38 583.43 420.54C583.43 417.66 584.03 415.08 585.23 412.8C586.47 410.52 588.13 408.72 590.21 407.4C592.33 406.08 594.75 405.42 597.47 405.42C599.55 405.42 601.41 405.84 603.05 406.68C604.73 407.52 606.07 408.7 607.07 410.22C608.11 411.7 608.67 413.38 608.75 415.26V425.58C608.67 427.46 608.13 429.16 607.13 430.68C606.13 432.2 604.79 433.4 603.11 434.28C601.43 435.16 599.55 435.6 597.47 435.6ZM598.79 428.34C600.27 428.34 601.55 428.02 602.63 427.38C603.75 426.7 604.61 425.78 605.21 424.62C605.85 423.42 606.17 422.04 606.17 420.48C606.17 418.96 605.85 417.62 605.21 416.46C604.61 415.26 603.75 414.34 602.63 413.7C601.55 413.02 600.29 412.68 598.85 412.68C597.37 412.68 596.07 413.02 594.95 413.7C593.87 414.38 593.01 415.3 592.37 416.46C591.77 417.62 591.47 418.96 591.47 420.48C591.47 422.04 591.77 423.42 592.37 424.62C593.01 425.78 593.89 426.7 595.01 427.38C596.13 428.02 597.39 428.34 598.79 428.34ZM613.55 435H605.75V427.2L607.01 420.12L605.69 413.16V391.62H613.55V435ZM620.503 435V406.02H628.363V435H620.503ZM620.563 402.3L617.563 398.58L626.203 389.22L631.243 395.34L620.563 402.3ZM647.448 435.6C644.808 435.6 642.428 434.94 640.308 433.62C638.188 432.3 636.528 430.5 635.328 428.22C634.128 425.94 633.528 423.38 633.528 420.54C633.528 417.66 634.128 415.08 635.328 412.8C636.528 410.52 638.188 408.72 640.308 407.4C642.428 406.08 644.808 405.42 647.448 405.42C649.528 405.42 651.388 405.84 653.028 406.68C654.668 407.52 655.968 408.7 656.928 410.22C657.928 411.7 658.468 413.38 658.548 415.26V425.7C658.468 427.62 657.928 429.32 656.928 430.8C655.968 432.28 654.668 433.46 653.028 434.34C651.388 435.18 649.528 435.6 647.448 435.6ZM648.888 428.34C651.088 428.34 652.868 427.62 654.228 426.18C655.588 424.7 656.268 422.8 656.268 420.48C656.268 418.96 655.948 417.62 655.308 416.46C654.708 415.26 653.848 414.34 652.728 413.7C651.648 413.02 650.368 412.68 648.888 412.68C647.448 412.68 646.168 413.02 645.048 413.7C643.968 414.34 643.108 415.26 642.468 416.46C641.868 417.62 641.568 418.96 641.568 420.48C641.568 422.04 641.868 423.42 642.468 424.62C643.108 425.78 643.968 426.7 645.048 427.38C646.168 428.02 647.448 428.34 648.888 428.34ZM655.848 435V427.2L657.108 420.12L655.848 413.16V406.02H663.648V435H655.848Z" fill="black"/>
<path fill-rule="evenodd" clip-rule="evenodd" d="M558.585 469.586C558.96 469.211 559.469 469 559.999 469C560.53 469 561.038 469.211 561.413 469.586L567.999 476.172L574.585 469.586C574.962 469.222 575.468 469.02 575.992 469.025C576.516 469.029 577.018 469.239 577.389 469.61C577.76 469.981 577.97 470.483 577.975 471.007C577.979 471.532 577.778 472.037 577.413 472.414L569.413 480.414C569.038 480.789 568.53 481 567.999 481C567.469 481 566.96 480.789 566.585 480.414L558.585 472.414C558.21 472.039 558 471.53 558 471C558 470.47 558.21 469.961 558.585 469.586V469.586Z" fill="#D45E72"/>
<path d="M598.19 485.5V464.68H600.98V485.5H598.19ZM593.93 467.2V464.68H600.68V467.2H593.93ZM617.651 485.8C616.331 485.8 615.151 485.48 614.111 484.84C613.071 484.18 612.241 483.29 611.621 482.17C611.021 481.05 610.721 479.79 610.721 478.39C610.721 476.99 611.021 475.73 611.621 474.61C612.241 473.49 613.071 472.6 614.111 471.94C615.151 471.28 616.331 470.95 617.651 470.95C618.711 470.95 619.671 471.18 620.531 471.64C621.391 472.08 622.081 472.7 622.601 473.5C623.141 474.28 623.441 475.19 623.501 476.23V480.52C623.441 481.54 623.151 482.45 622.631 483.25C622.111 484.05 621.421 484.68 620.561 485.14C619.701 485.58 618.731 485.8 617.651 485.8ZM618.101 483.25C619.001 483.25 619.781 483.04 620.441 482.62C621.121 482.2 621.651 481.63 622.031 480.91C622.411 480.17 622.601 479.33 622.601 478.39C622.601 477.41 622.401 476.56 622.001 475.84C621.621 475.12 621.091 474.55 620.411 474.13C619.751 473.71 618.971 473.5 618.071 473.5C617.171 473.5 616.381 473.71 615.701 474.13C615.021 474.55 614.481 475.13 614.081 475.87C613.701 476.59 613.511 477.42 613.511 478.36C613.511 479.32 613.701 480.17 614.081 480.91C614.481 481.63 615.021 482.2 615.701 482.62C616.401 483.04 617.201 483.25 618.101 483.25ZM625.151 485.5H622.421V481.66L622.931 478.18L622.421 474.73V464.08H625.151V485.5ZM629.082 485.5V471.25H631.782V485.5H629.082ZM628.632 469.12L627.402 467.89L631.302 463.06L633.432 465.19L628.632 469.12ZM641.792 485.8C640.492 485.8 639.312 485.48 638.252 484.84C637.192 484.18 636.352 483.29 635.732 482.17C635.132 481.05 634.832 479.79 634.832 478.39C634.832 476.99 635.132 475.73 635.732 474.61C636.352 473.49 637.182 472.6 638.222 471.94C639.282 471.28 640.472 470.95 641.792 470.95C642.872 470.95 643.832 471.18 644.672 471.64C645.532 472.08 646.222 472.7 646.742 473.5C647.262 474.28 647.552 475.19 647.612 476.23V480.52C647.552 481.54 647.262 482.45 646.742 483.25C646.242 484.05 645.562 484.68 644.702 485.14C643.862 485.58 642.892 485.8 641.792 485.8ZM642.242 483.25C643.582 483.25 644.662 482.8 645.482 481.9C646.302 480.98 646.712 479.81 646.712 478.39C646.712 477.41 646.522 476.56 646.142 475.84C645.782 475.1 645.262 474.53 644.582 474.13C643.902 473.71 643.112 473.5 642.212 473.5C641.312 473.5 640.512 473.71 639.812 474.13C639.132 474.55 638.592 475.13 638.192 475.87C637.812 476.59 637.622 477.42 637.622 478.36C637.622 479.32 637.812 480.17 638.192 480.91C638.592 481.63 639.142 482.2 639.842 482.62C640.542 483.04 641.342 483.25 642.242 483.25ZM646.532 485.5V481.66L647.042 478.18L646.532 474.73V471.25H649.262V485.5H646.532Z" fill="black" fill-opacity="0.5"/>
<rect x="105.5" y="532.5" width="405" height="202" rx="32.5" stroke="#F2F2F2" stroke-width="5"/>
<path d="M148.417 562.292L158.625 572.5M158.625 572.5L148.417 582.708M158.625 572.5H132.375" stroke="black" stroke-width="3" stroke-linecap="round" stroke-linejoin="round"/>
<path d="M178.003 584.85C176.09 584.85 174.456 584.5 173.103 583.8C171.75 583.1 170.548 582.085 169.498 580.755L171.738 578.515C172.508 579.588 173.395 580.405 174.398 580.965C175.401 581.502 176.638 581.77 178.108 581.77C179.555 581.77 180.71 581.455 181.573 580.825C182.46 580.195 182.903 579.332 182.903 578.235C182.903 577.325 182.693 576.59 182.273 576.03C181.853 575.47 181.281 575.015 180.558 574.665C179.858 574.292 179.088 573.965 178.248 573.685C177.408 573.382 176.568 573.067 175.728 572.74C174.888 572.39 174.118 571.97 173.418 571.48C172.718 570.967 172.146 570.302 171.703 569.485C171.283 568.668 171.073 567.642 171.073 566.405C171.073 565.028 171.4 563.862 172.053 562.905C172.73 561.925 173.64 561.178 174.783 560.665C175.95 560.128 177.256 559.86 178.703 559.86C180.29 559.86 181.713 560.175 182.973 560.805C184.233 561.412 185.26 562.217 186.053 563.22L183.813 565.46C183.09 564.62 182.308 563.99 181.468 563.57C180.651 563.15 179.706 562.94 178.633 562.94C177.326 562.94 176.288 563.232 175.518 563.815C174.748 564.375 174.363 565.168 174.363 566.195C174.363 567.012 174.573 567.677 174.993 568.19C175.436 568.68 176.008 569.1 176.708 569.45C177.408 569.8 178.178 570.127 179.018 570.43C179.881 570.71 180.733 571.025 181.573 571.375C182.413 571.725 183.183 572.168 183.883 572.705C184.583 573.242 185.143 573.942 185.563 574.805C186.006 575.645 186.228 576.707 186.228 577.99C186.228 580.137 185.481 581.817 183.988 583.03C182.518 584.243 180.523 584.85 178.003 584.85ZM196.933 584.85C195.416 584.85 194.039 584.477 192.803 583.73C191.566 582.96 190.586 581.922 189.863 580.615C189.163 579.308 188.813 577.838 188.813 576.205C188.813 574.572 189.163 573.102 189.863 571.795C190.586 570.488 191.554 569.45 192.768 568.68C194.004 567.91 195.393 567.525 196.933 567.525C198.193 567.525 199.313 567.793 200.293 568.33C201.296 568.843 202.101 569.567 202.708 570.5C203.314 571.41 203.653 572.472 203.723 573.685V578.69C203.653 579.88 203.314 580.942 202.708 581.875C202.124 582.808 201.331 583.543 200.328 584.08C199.348 584.593 198.216 584.85 196.933 584.85ZM197.458 581.875C199.021 581.875 200.281 581.35 201.238 580.3C202.194 579.227 202.673 577.862 202.673 576.205C202.673 575.062 202.451 574.07 202.008 573.23C201.588 572.367 200.981 571.702 200.188 571.235C199.394 570.745 198.473 570.5 197.423 570.5C196.373 570.5 195.439 570.745 194.623 571.235C193.829 571.725 193.199 572.402 192.733 573.265C192.289 574.105 192.068 575.073 192.068 576.17C192.068 577.29 192.289 578.282 192.733 579.145C193.199 579.985 193.841 580.65 194.658 581.14C195.474 581.63 196.408 581.875 197.458 581.875ZM202.463 584.5V580.02L203.058 575.96L202.463 571.935V567.875H205.648V584.5H202.463ZM210.234 584.5V559.51H213.384V584.5H210.234ZM220.548 584.5V560.91H223.698V584.5H220.548ZM216.453 570.745V567.875H227.793V570.745H216.453ZM237.436 584.85C235.919 584.85 234.542 584.477 233.306 583.73C232.069 582.96 231.089 581.922 230.366 580.615C229.666 579.308 229.316 577.838 229.316 576.205C229.316 574.572 229.666 573.102 230.366 571.795C231.089 570.488 232.057 569.45 233.271 568.68C234.507 567.91 235.896 567.525 237.436 567.525C238.696 567.525 239.816 567.793 240.796 568.33C241.799 568.843 242.604 569.567 243.211 570.5C243.817 571.41 244.156 572.472 244.226 573.685V578.69C244.156 579.88 243.817 580.942 243.211 581.875C242.627 582.808 241.834 583.543 240.831 584.08C239.851 584.593 238.719 584.85 237.436 584.85ZM237.961 581.875C239.524 581.875 240.784 581.35 241.741 580.3C242.697 579.227 243.176 577.862 243.176 576.205C243.176 575.062 242.954 574.07 242.511 573.23C242.091 572.367 241.484 571.702 240.691 571.235C239.897 570.745 238.976 570.5 237.926 570.5C236.876 570.5 235.942 570.745 235.126 571.235C234.332 571.725 233.702 572.402 233.236 573.265C232.792 574.105 232.571 575.073 232.571 576.17C232.571 577.29 232.792 578.282 233.236 579.145C233.702 579.985 234.344 580.65 235.161 581.14C235.977 581.63 236.911 581.875 237.961 581.875ZM242.966 584.5V580.02L243.561 575.96L242.966 571.935V567.875H246.151V584.5H242.966ZM257.772 584.85C256.232 584.85 254.855 584.477 253.642 583.73C252.428 582.96 251.46 581.922 250.737 580.615C250.037 579.308 249.687 577.838 249.687 576.205C249.687 574.572 250.037 573.102 250.737 571.795C251.46 570.488 252.428 569.45 253.642 568.68C254.855 567.91 256.232 567.525 257.772 567.525C259.008 567.525 260.128 567.793 261.132 568.33C262.135 568.843 262.94 569.567 263.547 570.5C264.177 571.41 264.527 572.472 264.597 573.685V578.69C264.527 579.88 264.188 580.942 263.582 581.875C262.975 582.808 262.17 583.543 261.167 584.08C260.163 584.593 259.032 584.85 257.772 584.85ZM258.297 581.875C259.347 581.875 260.257 581.63 261.027 581.14C261.82 580.65 262.438 579.985 262.882 579.145C263.325 578.282 263.547 577.302 263.547 576.205C263.547 575.062 263.313 574.07 262.847 573.23C262.403 572.39 261.785 571.725 260.992 571.235C260.222 570.745 259.312 570.5 258.262 570.5C257.212 570.5 256.29 570.745 255.497 571.235C254.703 571.725 254.073 572.402 253.607 573.265C253.163 574.105 252.942 575.073 252.942 576.17C252.942 577.29 253.163 578.282 253.607 579.145C254.073 579.985 254.703 580.65 255.497 581.14C256.313 581.63 257.247 581.875 258.297 581.875ZM266.522 584.5H263.337V580.02L263.932 575.96L263.337 571.935V559.51H266.522V584.5ZM278.703 584.85C277.07 584.85 275.6 584.465 274.293 583.695C272.986 582.925 271.948 581.887 271.178 580.58C270.408 579.25 270.023 577.768 270.023 576.135C270.023 574.525 270.408 573.078 271.178 571.795C271.948 570.488 272.986 569.45 274.293 568.68C275.6 567.91 277.07 567.525 278.703 567.525C280.313 567.525 281.771 567.91 283.078 568.68C284.408 569.427 285.458 570.453 286.228 571.76C286.998 573.067 287.383 574.525 287.383 576.135C287.383 577.768 286.998 579.25 286.228 580.58C285.458 581.887 284.408 582.925 283.078 583.695C281.771 584.465 280.313 584.85 278.703 584.85ZM278.703 581.805C279.753 581.805 280.686 581.56 281.503 581.07C282.32 580.58 282.961 579.915 283.428 579.075C283.895 578.212 284.128 577.232 284.128 576.135C284.128 575.062 283.883 574.105 283.393 573.265C282.926 572.425 282.285 571.772 281.468 571.305C280.675 570.815 279.753 570.57 278.703 570.57C277.653 570.57 276.72 570.815 275.903 571.305C275.086 571.772 274.445 572.425 273.978 573.265C273.511 574.105 273.278 575.062 273.278 576.135C273.278 577.232 273.511 578.212 273.978 579.075C274.445 579.915 275.086 580.58 275.903 581.07C276.72 581.56 277.653 581.805 278.703 581.805Z" fill="black"/>
<path d="M129.56 647.32L145.46 630.7C146.58 629.5 147.48 628.44 148.16 627.52C148.88 626.56 149.4 625.66 149.72 624.82C150.04 623.94 150.2 623.06 150.2 622.18C150.2 620.42 149.62 619.04 148.46 618.04C147.34 617.04 145.88 616.54 144.08 616.54C142.24 616.54 140.6 617.02 139.16 617.98C137.76 618.94 136.44 620.46 135.2 622.54L129.62 617.8C131.3 614.96 133.38 612.82 135.86 611.38C138.38 609.9 141.26 609.16 144.5 609.16C147.26 609.16 149.66 609.7 151.7 610.78C153.78 611.86 155.38 613.36 156.5 615.28C157.62 617.2 158.18 619.44 158.18 622C158.18 623.72 157.96 625.28 157.52 626.68C157.12 628.08 156.42 629.48 155.42 630.88C154.46 632.24 153.12 633.78 151.4 635.5L139.82 647.32H129.56ZM129.56 652V647.32L136.52 644.92H159.08V652H129.56ZM188.603 652.6C185.923 652.6 183.523 651.94 181.403 650.62C179.283 649.3 177.603 647.5 176.363 645.22C175.163 642.94 174.563 640.38 174.563 637.54C174.563 634.66 175.163 632.08 176.363 629.8C177.603 627.52 179.263 625.72 181.343 624.4C183.463 623.08 185.883 622.42 188.603 622.42C190.683 622.42 192.543 622.84 194.183 623.68C195.863 624.52 197.203 625.7 198.203 627.22C199.243 628.7 199.803 630.38 199.883 632.26V642.58C199.803 644.46 199.263 646.16 198.263 647.68C197.263 649.2 195.923 650.4 194.243 651.28C192.563 652.16 190.683 652.6 188.603 652.6ZM189.923 645.34C191.403 645.34 192.683 645.02 193.763 644.38C194.883 643.7 195.743 642.78 196.343 641.62C196.983 640.42 197.303 639.04 197.303 637.48C197.303 635.96 196.983 634.62 196.343 633.46C195.743 632.26 194.883 631.34 193.763 630.7C192.683 630.02 191.423 629.68 189.983 629.68C188.503 629.68 187.203 630.02 186.083 630.7C185.003 631.38 184.143 632.3 183.503 633.46C182.903 634.62 182.603 635.96 182.603 637.48C182.603 639.04 182.903 640.42 183.503 641.62C184.143 642.78 185.023 643.7 186.143 644.38C187.263 645.02 188.523 645.34 189.923 645.34ZM204.683 652H196.883V644.2L198.143 637.12L196.823 630.16V608.62H204.683V652ZM211.636 652V623.02H219.496V652H211.636ZM211.696 619.3L208.696 615.58L217.336 606.22L222.376 612.34L211.696 619.3ZM238.58 652.6C235.94 652.6 233.56 651.94 231.44 650.62C229.32 649.3 227.66 647.5 226.46 645.22C225.26 642.94 224.66 640.38 224.66 637.54C224.66 634.66 225.26 632.08 226.46 629.8C227.66 627.52 229.32 625.72 231.44 624.4C233.56 623.08 235.94 622.42 238.58 622.42C240.66 622.42 242.52 622.84 244.16 623.68C245.8 624.52 247.1 625.7 248.06 627.22C249.06 628.7 249.6 630.38 249.68 632.26V642.7C249.6 644.62 249.06 646.32 248.06 647.8C247.1 649.28 245.8 650.46 244.16 651.34C242.52 652.18 240.66 652.6 238.58 652.6ZM240.02 645.34C242.22 645.34 244 644.62 245.36 643.18C246.72 641.7 247.4 639.8 247.4 637.48C247.4 635.96 247.08 634.62 246.44 633.46C245.84 632.26 244.98 631.34 243.86 630.7C242.78 630.02 241.5 629.68 240.02 629.68C238.58 629.68 237.3 630.02 236.18 630.7C235.1 631.34 234.24 632.26 233.6 633.46C233 634.62 232.7 635.96 232.7 637.48C232.7 639.04 233 640.42 233.6 641.62C234.24 642.78 235.1 643.7 236.18 644.38C237.3 645.02 238.58 645.34 240.02 645.34ZM246.98 652V644.2L248.24 637.12L246.98 630.16V623.02H254.78V652H246.98ZM271.694 652.66C270.054 652.66 268.434 652.44 266.834 652C265.274 651.56 263.834 650.96 262.514 650.2C261.194 649.4 260.054 648.44 259.094 647.32L263.774 642.58C264.774 643.7 265.934 644.54 267.254 645.1C268.574 645.66 270.034 645.94 271.634 645.94C272.914 645.94 273.874 645.76 274.514 645.4C275.194 645.04 275.534 644.5 275.534 643.78C275.534 642.98 275.174 642.36 274.454 641.92C273.774 641.48 272.874 641.12 271.754 640.84C270.634 640.52 269.454 640.18 268.214 639.82C267.014 639.42 265.854 638.92 264.734 638.32C263.614 637.68 262.694 636.82 261.974 635.74C261.294 634.62 260.954 633.18 260.954 631.42C260.954 629.58 261.394 627.98 262.274 626.62C263.194 625.26 264.494 624.2 266.174 623.44C267.854 622.68 269.834 622.3 272.114 622.3C274.514 622.3 276.674 622.72 278.594 623.56C280.554 624.4 282.174 625.66 283.454 627.34L278.714 632.08C277.834 631 276.834 630.22 275.714 629.74C274.634 629.26 273.454 629.02 272.174 629.02C271.014 629.02 270.114 629.2 269.474 629.56C268.874 629.92 268.574 630.42 268.574 631.06C268.574 631.78 268.914 632.34 269.594 632.74C270.314 633.14 271.234 633.5 272.354 633.82C273.474 634.1 274.634 634.44 275.834 634.84C277.074 635.2 278.234 635.72 279.314 636.4C280.434 637.08 281.334 637.98 282.014 639.1C282.734 640.22 283.094 641.66 283.094 643.42C283.094 646.26 282.074 648.52 280.034 650.2C277.994 651.84 275.214 652.66 271.694 652.66Z" fill="black"/>
<path fill-rule="evenodd" clip-rule="evenodd" d="M157.415 697.414C157.04 697.789 156.531 698 156.001 698C155.47 698 154.962 697.789 154.587 697.414L148.001 690.828L141.415 697.414C141.038 697.778 140.532 697.98 140.008 697.975C139.484 697.971 138.982 697.761 138.611 697.39C138.24 697.019 138.03 696.517 138.025 695.993C138.021 695.468 138.222 694.963 138.587 694.586L146.587 686.586C146.962 686.211 147.47 686 148.001 686C148.531 686 149.04 686.211 149.415 686.586L157.415 694.586C157.79 694.961 158 695.47 158 696C158 696.53 157.79 697.039 157.415 697.414V697.414Z" fill="#5ED481"/>
<path d="M173.99 700.79L181.67 692.69C182.45 691.89 183.06 691.2 183.5 690.62C183.94 690.02 184.25 689.47 184.43 688.97C184.63 688.47 184.73 687.95 184.73 687.41C184.73 686.35 184.39 685.52 183.71 684.92C183.03 684.32 182.15 684.02 181.07 684.02C180.01 684.02 179.08 684.28 178.28 684.8C177.48 685.3 176.77 686.08 176.15 687.14L174.17 685.49C174.99 684.13 175.98 683.11 177.14 682.43C178.3 681.73 179.64 681.38 181.16 681.38C182.44 681.38 183.55 681.63 184.49 682.13C185.45 682.63 186.19 683.33 186.71 684.23C187.23 685.13 187.49 686.18 187.49 687.38C187.49 688.24 187.38 689.01 187.16 689.69C186.96 690.37 186.59 691.07 186.05 691.79C185.53 692.49 184.8 693.33 183.86 694.31L177.65 700.7L173.99 700.79ZM173.99 702.5V700.79L176.39 699.98H187.97V702.5H173.99ZM203.481 702.8C202.161 702.8 200.981 702.48 199.941 701.84C198.901 701.18 198.071 700.29 197.451 699.17C196.851 698.05 196.551 696.79 196.551 695.39C196.551 693.99 196.851 692.73 197.451 691.61C198.071 690.49 198.901 689.6 199.941 688.94C200.981 688.28 202.161 687.95 203.481 687.95C204.541 687.95 205.501 688.18 206.361 688.64C207.221 689.08 207.911 689.7 208.431 690.5C208.971 691.28 209.271 692.19 209.331 693.23V697.52C209.271 698.54 208.981 699.45 208.461 700.25C207.941 701.05 207.251 701.68 206.391 702.14C205.531 702.58 204.561 702.8 203.481 702.8ZM203.931 700.25C204.831 700.25 205.611 700.04 206.271 699.62C206.951 699.2 207.481 698.63 207.861 697.91C208.241 697.17 208.431 696.33 208.431 695.39C208.431 694.41 208.231 693.56 207.831 692.84C207.451 692.12 206.921 691.55 206.241 691.13C205.581 690.71 204.801 690.5 203.901 690.5C203.001 690.5 202.211 690.71 201.531 691.13C200.851 691.55 200.311 692.13 199.911 692.87C199.531 693.59 199.341 694.42 199.341 695.36C199.341 696.32 199.531 697.17 199.911 697.91C200.311 698.63 200.851 699.2 201.531 699.62C202.231 700.04 203.031 700.25 203.931 700.25ZM210.981 702.5H208.251V698.66L208.761 695.18L208.251 691.73V681.08H210.981V702.5ZM214.912 702.5V688.25H217.612V702.5H214.912ZM214.462 686.12L213.232 684.89L217.132 680.06L219.262 682.19L214.462 686.12ZM227.622 702.8C226.322 702.8 225.142 702.48 224.082 701.84C223.022 701.18 222.182 700.29 221.562 699.17C220.962 698.05 220.662 696.79 220.662 695.39C220.662 693.99 220.962 692.73 221.562 691.61C222.182 690.49 223.012 689.6 224.052 688.94C225.112 688.28 226.302 687.95 227.622 687.95C228.702 687.95 229.662 688.18 230.502 688.64C231.362 689.08 232.052 689.7 232.572 690.5C233.092 691.28 233.382 692.19 233.442 693.23V697.52C233.382 698.54 233.092 699.45 232.572 700.25C232.072 701.05 231.392 701.68 230.532 702.14C229.692 702.58 228.722 702.8 227.622 702.8ZM228.072 700.25C229.412 700.25 230.492 699.8 231.312 698.9C232.132 697.98 232.542 696.81 232.542 695.39C232.542 694.41 232.352 693.56 231.972 692.84C231.612 692.1 231.092 691.53 230.412 691.13C229.732 690.71 228.942 690.5 228.042 690.5C227.142 690.5 226.342 690.71 225.642 691.13C224.962 691.55 224.422 692.13 224.022 692.87C223.642 693.59 223.452 694.42 223.452 695.36C223.452 696.32 223.642 697.17 224.022 697.91C224.422 698.63 224.972 699.2 225.672 699.62C226.372 700.04 227.172 700.25 228.072 700.25ZM232.362 702.5V698.66L232.872 695.18L232.362 691.73V688.25H235.092V702.5H232.362ZM243.553 702.8C242.753 702.8 241.993 702.7 241.273 702.5C240.573 702.28 239.923 701.98 239.323 701.6C238.723 701.2 238.203 700.73 237.763 700.19L239.503 698.45C240.023 699.09 240.623 699.57 241.303 699.89C241.983 700.19 242.743 700.34 243.583 700.34C244.423 700.34 245.073 700.2 245.533 699.92C245.993 699.62 246.223 699.21 246.223 698.69C246.223 698.17 246.033 697.77 245.653 697.49C245.293 697.19 244.823 696.95 244.243 696.77C243.663 696.57 243.043 696.38 242.383 696.2C241.743 696 241.133 695.75 240.553 695.45C239.973 695.15 239.493 694.74 239.113 694.22C238.753 693.7 238.573 693.01 238.573 692.15C238.573 691.29 238.783 690.55 239.203 689.93C239.623 689.29 240.203 688.8 240.943 688.46C241.703 688.12 242.613 687.95 243.673 687.95C244.793 687.95 245.783 688.15 246.643 688.55C247.523 688.93 248.243 689.51 248.803 690.29L247.063 692.03C246.663 691.51 246.163 691.11 245.563 690.83C244.983 690.55 244.323 690.41 243.583 690.41C242.803 690.41 242.203 690.55 241.783 690.83C241.383 691.09 241.183 691.46 241.183 691.94C241.183 692.42 241.363 692.79 241.723 693.05C242.083 693.31 242.553 693.53 243.133 693.71C243.733 693.89 244.353 694.08 244.993 694.28C245.633 694.46 246.243 694.71 246.823 695.03C247.403 695.35 247.873 695.78 248.233 696.32C248.613 696.86 248.803 697.57 248.803 698.45C248.803 699.79 248.323 700.85 247.363 701.63C246.423 702.41 245.153 702.8 243.553 702.8Z" fill="black" fill-opacity="0.5"/>
<rect x="525.5" y="532.5" width="405" height="202" rx="32.5" stroke="#F2F2F2" stroke-width="5"/>
<path d="M557.772 583V559.41H561.062V583H557.772ZM549.512 561.72V558.71H569.287V561.72H549.512ZM575.628 583.35C573.995 583.35 572.525 582.965 571.218 582.195C569.911 581.425 568.873 580.387 568.103 579.08C567.333 577.75 566.948 576.268 566.948 574.635C566.948 573.025 567.333 571.578 568.103 570.295C568.873 568.988 569.911 567.95 571.218 567.18C572.525 566.41 573.995 566.025 575.628 566.025C577.238 566.025 578.696 566.41 580.003 567.18C581.333 567.927 582.383 568.953 583.153 570.26C583.923 571.567 584.308 573.025 584.308 574.635C584.308 576.268 583.923 577.75 583.153 579.08C582.383 580.387 581.333 581.425 580.003 582.195C578.696 582.965 577.238 583.35 575.628 583.35ZM575.628 580.305C576.678 580.305 577.611 580.06 578.428 579.57C579.245 579.08 579.886 578.415 580.353 577.575C580.82 576.712 581.053 575.732 581.053 574.635C581.053 573.562 580.808 572.605 580.318 571.765C579.851 570.925 579.21 570.272 578.393 569.805C577.6 569.315 576.678 569.07 575.628 569.07C574.578 569.07 573.645 569.315 572.828 569.805C572.011 570.272 571.37 570.925 570.903 571.765C570.436 572.605 570.203 573.562 570.203 574.635C570.203 575.732 570.436 576.712 570.903 577.575C571.37 578.415 572.011 579.08 572.828 579.57C573.645 580.06 574.578 580.305 575.628 580.305ZM589.9 583V559.41H593.05V583H589.9ZM585.805 569.245V566.375H597.145V569.245H585.805ZM606.788 583.35C605.271 583.35 603.894 582.977 602.658 582.23C601.421 581.46 600.441 580.422 599.718 579.115C599.018 577.808 598.668 576.338 598.668 574.705C598.668 573.072 599.018 571.602 599.718 570.295C600.441 568.988 601.409 567.95 602.623 567.18C603.859 566.41 605.248 566.025 606.788 566.025C608.048 566.025 609.168 566.293 610.148 566.83C611.151 567.343 611.956 568.067 612.563 569C613.169 569.91 613.508 570.972 613.578 572.185V577.19C613.508 578.38 613.169 579.442 612.563 580.375C611.979 581.308 611.186 582.043 610.183 582.58C609.203 583.093 608.071 583.35 606.788 583.35ZM607.313 580.375C608.876 580.375 610.136 579.85 611.093 578.8C612.049 577.727 612.528 576.362 612.528 574.705C612.528 573.562 612.306 572.57 611.863 571.73C611.443 570.867 610.836 570.202 610.043 569.735C609.249 569.245 608.328 569 607.278 569C606.228 569 605.294 569.245 604.478 569.735C603.684 570.225 603.054 570.902 602.588 571.765C602.144 572.605 601.923 573.573 601.923 574.67C601.923 575.79 602.144 576.782 602.588 577.645C603.054 578.485 603.696 579.15 604.513 579.64C605.329 580.13 606.263 580.375 607.313 580.375ZM612.318 583V578.52L612.913 574.46L612.318 570.435V566.375H615.503V583H612.318ZM620.089 583V558.01H623.239V583H620.089Z" fill="black"/>
<path d="M557.66 650V607.82H565.7V650H557.66ZM549.38 614.9V607.82H565.1V614.9H549.38ZM584.971 650.6C582.131 650.6 579.531 650.1 577.171 649.1C574.811 648.06 572.831 646.58 571.231 644.66L576.631 639.32C577.431 640.52 578.571 641.48 580.051 642.2C581.531 642.92 583.131 643.28 584.851 643.28C586.451 643.28 587.831 643 588.991 642.44C590.151 641.84 591.051 641.02 591.691 639.98C592.371 638.9 592.711 637.66 592.711 636.26C592.711 634.78 592.371 633.52 591.691 632.48C591.051 631.44 590.111 630.64 588.871 630.08C587.631 629.52 586.151 629.24 584.431 629.24C583.671 629.24 582.891 629.3 582.091 629.42C581.291 629.5 580.611 629.64 580.051 629.84L583.651 625.28C584.651 624.96 585.631 624.7 586.591 624.5C587.591 624.26 588.511 624.14 589.351 624.14C591.511 624.14 593.451 624.66 595.171 625.7C596.931 626.7 598.311 628.14 599.311 630.02C600.351 631.86 600.871 634.04 600.871 636.56C600.871 639.36 600.211 641.82 598.891 643.94C597.571 646.02 595.711 647.66 593.311 648.86C590.951 650.02 588.171 650.6 584.971 650.6ZM580.051 629.84V625.16L590.851 612.62L600.211 612.5L589.051 625.28L580.051 629.84ZM573.571 614.9V607.82H600.211V612.5L593.551 614.9H573.571ZM630.458 650.6C627.778 650.6 625.378 649.94 623.258 648.62C621.138 647.3 619.458 645.5 618.218 643.22C617.018 640.94 616.418 638.38 616.418 635.54C616.418 632.66 617.018 630.08 618.218 627.8C619.458 625.52 621.118 623.72 623.198 622.4C625.318 621.08 627.738 620.42 630.458 620.42C632.538 620.42 634.398 620.84 636.038 621.68C637.718 622.52 639.058 623.7 640.058 625.22C641.098 626.7 641.658 628.38 641.738 630.26V640.58C641.658 642.46 641.118 644.16 640.118 645.68C639.118 647.2 637.778 648.4 636.098 649.28C634.418 650.16 632.538 650.6 630.458 650.6ZM631.778 643.34C633.258 643.34 634.538 643.02 635.618 642.38C636.738 641.7 637.598 640.78 638.198 639.62C638.838 638.42 639.158 637.04 639.158 635.48C639.158 633.96 638.838 632.62 638.198 631.46C637.598 630.26 636.738 629.34 635.618 628.7C634.538 628.02 633.278 627.68 631.838 627.68C630.358 627.68 629.058 628.02 627.938 628.7C626.858 629.38 625.998 630.3 625.358 631.46C624.758 632.62 624.458 633.96 624.458 635.48C624.458 637.04 624.758 638.42 625.358 639.62C625.998 640.78 626.878 641.7 627.998 642.38C629.118 643.02 630.378 643.34 631.778 643.34ZM646.538 650H638.738V642.2L639.998 635.12L638.678 628.16V606.62H646.538V650ZM653.492 650V621.02H661.352V650H653.492ZM653.552 617.3L650.552 613.58L659.192 604.22L664.232 610.34L653.552 617.3ZM680.436 650.6C677.796 650.6 675.416 649.94 673.296 648.62C671.176 647.3 669.516 645.5 668.316 643.22C667.116 640.94 666.516 638.38 666.516 635.54C666.516 632.66 667.116 630.08 668.316 627.8C669.516 625.52 671.176 623.72 673.296 622.4C675.416 621.08 677.796 620.42 680.436 620.42C682.516 620.42 684.376 620.84 686.016 621.68C687.656 622.52 688.956 623.7 689.916 625.22C690.916 626.7 691.456 628.38 691.536 630.26V640.7C691.456 642.62 690.916 644.32 689.916 645.8C688.956 647.28 687.656 648.46 686.016 649.34C684.376 650.18 682.516 650.6 680.436 650.6ZM681.876 643.34C684.076 643.34 685.856 642.62 687.216 641.18C688.576 639.7 689.256 637.8 689.256 635.48C689.256 633.96 688.936 632.62 688.296 631.46C687.696 630.26 686.836 629.34 685.716 628.7C684.636 628.02 683.356 627.68 681.876 627.68C680.436 627.68 679.156 628.02 678.036 628.7C676.956 629.34 676.096 630.26 675.456 631.46C674.856 632.62 674.556 633.96 674.556 635.48C674.556 637.04 674.856 638.42 675.456 639.62C676.096 640.78 676.956 641.7 678.036 642.38C679.156 643.02 680.436 643.34 681.876 643.34ZM688.836 650V642.2L690.096 635.12L688.836 628.16V621.02H696.636V650H688.836ZM713.549 650.66C711.909 650.66 710.289 650.44 708.689 650C707.129 649.56 705.689 648.96 704.369 648.2C703.049 647.4 701.909 646.44 700.949 645.32L705.629 640.58C706.629 641.7 707.789 642.54 709.109 643.1C710.429 643.66 711.889 643.94 713.489 643.94C714.769 643.94 715.729 643.76 716.369 643.4C717.049 643.04 717.389 642.5 717.389 641.78C717.389 640.98 717.029 640.36 716.309 639.92C715.629 639.48 714.729 639.12 713.609 638.84C712.489 638.52 711.309 638.18 710.069 637.82C708.869 637.42 707.709 636.92 706.589 636.32C705.469 635.68 704.549 634.82 703.829 633.74C703.149 632.62 702.809 631.18 702.809 629.42C702.809 627.58 703.249 625.98 704.129 624.62C705.049 623.26 706.349 622.2 708.029 621.44C709.709 620.68 711.689 620.3 713.969 620.3C716.369 620.3 718.529 620.72 720.449 621.56C722.409 622.4 724.029 623.66 725.309 625.34L720.569 630.08C719.689 629 718.689 628.22 717.569 627.74C716.489 627.26 715.309 627.02 714.029 627.02C712.869 627.02 711.969 627.2 711.329 627.56C710.729 627.92 710.429 628.42 710.429 629.06C710.429 629.78 710.769 630.34 711.449 630.74C712.169 631.14 713.089 631.5 714.209 631.82C715.329 632.1 716.489 632.44 717.689 632.84C718.929 633.2 720.089 633.72 721.169 634.4C722.289 635.08 723.189 635.98 723.869 637.1C724.589 638.22 724.949 639.66 724.949 641.42C724.949 644.26 723.929 646.52 721.889 648.2C719.849 649.84 717.069 650.66 713.549 650.66Z" fill="black"/>
</svg>
